<svg width="20" height="20" viewBox="0 0 20 20" fill="none" xmlns="http://www.w3.org/2000/svg">
<path d="M1.16 12.25C0.759999 12.69 0.529999 13.27 0.529999 13.87C0.529999 14.51 0.789999 15.13 1.24 15.59C1.7 16.05 2.31 16.3 2.96 16.3H7.02V14.68H2.96C2.75 14.68 2.54 14.59 2.39 14.44C2.24 14.29 2.15 14.08 2.15 13.87C2.15 13.76 2.17 13.66 2.22 13.56C2.26 13.46 2.33 13.37 2.4 13.3C2.47 13.22 2.56 13.16 2.65 13.12C2.75 13.08 2.85 13.06 2.95 13.06H7.01V11.44H2.96C2.75 11.44 2.54 11.35 2.39 11.2C2.24 11.05 2.15 10.84 2.15 10.63C2.15 10.52 2.17 10.42 2.22 10.32C2.26 10.22 2.33 10.13 2.4 10.06C2.47 9.97996 2.56 9.91996 2.65 9.87996C2.75 9.83996 2.85 9.81996 2.95 9.81996H7.01V8.19996H2.96C2.75 8.19996 2.54 8.10996 2.39 7.95996C2.24 7.80996 2.15 7.59996 2.15 7.38996C2.15 7.27996 2.17 7.17996 2.22 7.07996C2.26 6.97996 2.33 6.88996 2.4 6.81996C2.47 6.73996 2.56 6.67996 2.65 6.63996C2.75 6.59996 2.85 6.57996 2.95 6.57996H7.01V4.95996H2.96C2.49 4.95996 2.03 5.09996 1.64 5.35996C1.25 5.61996 0.939999 5.97996 0.749999 6.40996C0.559999 6.83996 0.499999 7.30996 0.569999 7.76996C0.639999 8.22996 0.849999 8.65996 1.16 9.00996C0.759999 9.45996 0.539999 10.03 0.539999 10.63C0.539999 11.23 0.759999 11.81 1.16 12.25Z" fill="#454545"/>
<path d="M7.34001 6.81973C7.43001 6.90973 7.49001 7.02973 7.53001 7.14973V6.39973H8.98001C8.86001 6.12973 8.70001 5.88973 8.49001 5.67973C8.03001 5.21973 7.42001 4.96973 6.77001 4.96973H2.71001V6.58973H6.77001C6.98001 6.58973 7.19001 6.67973 7.34001 6.82973V6.81973Z" fill="#454545"/>
<path d="M7.34001 10.0604C7.43001 10.1504 7.49001 10.2704 7.53001 10.3904V7.61035C7.53001 7.61035 7.53001 7.67035 7.51001 7.70035C7.47001 7.80035 7.40001 7.89035 7.33001 7.96035C7.26001 8.04035 7.17001 8.10035 7.08001 8.14035C6.98001 8.18035 6.88001 8.20035 6.78001 8.20035H2.71001V9.82035H6.77001C6.98001 9.82035 7.19001 9.91035 7.34001 10.0604Z" fill="#454545"/>
<path d="M7.53001 13.4604V10.8604C7.53001 10.8604 7.53001 10.9204 7.51001 10.9504C7.47001 11.0504 7.40001 11.1404 7.33001 11.2104C7.26001 11.2904 7.17001 11.3504 7.08001 11.3904C6.98001 11.4304 6.88001 11.4504 6.78001 11.4504H2.71001V13.0704H6.77001C6.98001 13.0704 7.19001 13.1604 7.34001 13.3104C7.49001 13.4604 7.58001 13.6704 7.58001 13.8804C7.58001 13.9904 7.56001 14.0904 7.51001 14.1904C7.47001 14.2904 7.40001 14.3804 7.33001 14.4504C7.26001 14.5304 7.17001 14.5904 7.08001 14.6304C6.98001 14.6704 6.88001 14.6904 6.78001 14.6904H2.71001V16.3104H6.77001C7.24001 16.3104 7.70001 16.1704 8.09001 15.9104C8.48001 15.6504 8.79001 15.2904 8.98001 14.8604C9.11001 14.5604 9.16001 14.2304 9.16001 13.9004L7.53001 13.4504V13.4604Z" fill="#454545"/>
<path d="M10.4 11.7704C10.55 12.2904 10.79 12.7104 11.11 13.0304C11.43 13.3504 11.85 13.5704 12.36 13.6904V13.9704C12.36 14.1204 12.42 14.2604 12.53 14.3704C12.64 14.4804 12.78 14.5404 12.93 14.5404C13.08 14.5404 13.22 14.4804 13.33 14.3704C13.44 14.2604 13.5 14.1204 13.5 13.9704V13.7304C14.04 13.6304 14.51 13.4204 14.9 13.0904C15.29 12.7604 15.49 12.2804 15.49 11.6404C15.49 11.1804 15.36 10.7604 15.1 10.3804C14.84 10.0004 14.32 9.67043 13.53 9.38043C12.88 9.16043 12.43 8.97043 12.18 8.81043C11.93 8.65043 11.8 8.42043 11.8 8.14043C11.8 7.86043 11.9 7.63043 12.1 7.47043C12.3 7.31043 12.59 7.23043 12.97 7.23043C13.32 7.23043 13.59 7.31043 13.79 7.48043C13.99 7.65043 14.13 7.86043 14.21 8.11043L15.25 7.69043C15.13 7.31043 14.91 6.98043 14.59 6.69043C14.27 6.41043 13.91 6.25043 13.52 6.22043V5.98043C13.52 5.83043 13.46 5.69043 13.35 5.58043C13.24 5.47043 13.1 5.41043 12.95 5.41043C12.8 5.41043 12.66 5.47043 12.55 5.58043C12.44 5.69043 12.38 5.83043 12.38 5.98043V6.22043C11.84 6.34043 11.41 6.58043 11.11 6.94043C10.81 7.30043 10.65 7.70043 10.65 8.15043C10.65 8.66043 10.8 9.07043 11.1 9.39043C11.4 9.71043 11.87 9.98043 12.51 10.2104C13.2 10.4604 13.67 10.6804 13.94 10.8804C14.21 11.0804 14.34 11.3304 14.34 11.6504C14.34 12.0104 14.21 12.2704 13.96 12.4404C13.71 12.6104 13.4 12.6904 13.04 12.6904C12.68 12.6904 12.36 12.5804 12.09 12.3604C11.81 12.1404 11.61 11.8004 11.48 11.3604L10.4 11.7804V11.7704ZM12.95 16.5004C12.05 16.5004 11.2 16.3304 10.4 15.9904C9.6 15.6504 8.91 15.1804 8.33 14.5904C7.74 14.0004 7.28 13.3104 6.93 12.5204C6.59 11.7304 6.42 10.8804 6.42 9.97043C6.42 9.06043 6.59 8.22043 6.93 7.42043C7.27 6.63043 7.74 5.93043 8.33 5.35043C8.92 4.76043 9.61 4.30043 10.4 3.95043C11.19 3.61043 12.04 3.44043 12.95 3.44043C13.86 3.44043 14.7 3.61043 15.5 3.95043C16.29 4.29043 16.99 4.76043 17.57 5.35043C18.16 5.94043 18.62 6.63043 18.97 7.42043C19.32 8.21043 19.48 9.06043 19.48 9.97043C19.48 10.8804 19.31 11.7204 18.97 12.5204C18.63 13.3104 18.16 14.0104 17.57 14.5904C16.98 15.1804 16.29 15.6404 15.5 15.9904C14.71 16.3304 13.86 16.5004 12.95 16.5004ZM12.95 15.1904C14.41 15.1904 15.64 14.6804 16.65 13.6704C17.66 12.6604 18.17 11.4204 18.17 9.97043C18.17 8.52043 17.66 7.28043 16.65 6.27043C15.64 5.26043 14.4 4.75043 12.95 4.75043C11.5 4.75043 10.26 5.26043 9.25 6.27043C8.24 7.28043 7.73 8.52043 7.73 9.97043C7.73 11.4204 8.24 12.6604 9.25 13.6704C10.26 14.6804 11.5 15.1904 12.95 15.1904Z" fill="#454545"/>
</svg>
