<svg width="21" height="20" viewBox="0 0 21 20" fill="none" xmlns="http://www.w3.org/2000/svg">
<path d="M17.7866 13.1005L17.147 12.7088L17.147 12.7088L17.7866 13.1005ZM16.9911 14.3995L17.6307 14.7912V14.7912L16.9911 14.3995ZM3.21341 6.89951L2.5738 6.50785H2.5738L3.21341 6.89951ZM4.00887 5.60048L4.64848 5.99214V5.99214L4.00887 5.60048ZM6.1821 5.05144L6.54068 4.39271L6.54068 4.39271L6.1821 5.05144ZM3.79572 8.94855L3.43714 9.60728H3.43714L3.79572 8.94855ZM14.8179 14.9486L14.4593 15.6073L14.4593 15.6073L14.8179 14.9486ZM17.2043 11.0514L16.8457 11.7102L17.2043 11.0514ZM4.00887 14.3995L3.36925 14.7912H3.36925L4.00887 14.3995ZM3.21341 13.1005L3.85302 12.7088H3.85302L3.21341 13.1005ZM16.9911 5.60049L17.6307 5.20883V5.20882L16.9911 5.60049ZM17.7866 6.89952L17.147 7.29119L17.147 7.29119L17.7866 6.89952ZM17.2043 8.94856L17.5629 9.60729L17.2043 8.94856ZM14.8179 5.05145L15.1765 5.71017L15.1765 5.71017L14.8179 5.05145ZM3.79572 11.0514L4.1543 11.7102H4.1543L3.79572 11.0514ZM6.1821 14.9486L5.82352 14.2898L5.82351 14.2898L6.1821 14.9486ZM14.7333 5.09748L14.3748 4.43876V4.43876L14.7333 5.09748ZM6.26667 5.09747L5.90808 5.7562L5.90809 5.7562L6.26667 5.09747ZM14.7333 14.9025L15.0919 14.2438L15.0919 14.2438L14.7333 14.9025ZM6.26667 14.9025L6.62524 15.5613L6.62525 15.5613L6.26667 14.9025ZM9.70454 2.5V3.25H11.2955V2.5V1.75H9.70454V2.5ZM11.2955 17.5V16.75H9.70454V17.5V18.25H11.2955V17.5ZM9.70454 17.5V16.75C9.19793 16.75 8.86363 16.3732 8.86363 16H8.11363H7.36363C7.36363 17.2836 8.45388 18.25 9.70454 18.25V17.5ZM12.8864 16H12.1364C12.1364 16.3732 11.8021 16.75 11.2955 16.75V17.5V18.25C12.5461 18.25 13.6364 17.2836 13.6364 16H12.8864ZM11.2955 2.5V3.25C11.8021 3.25 12.1364 3.62675 12.1364 4H12.8864H13.6364C13.6364 2.71639 12.5461 1.75 11.2955 1.75V2.5ZM9.70454 2.5V1.75C8.45388 1.75 7.36363 2.71639 7.36363 4H8.11363H8.86363C8.86363 3.62675 9.19793 3.25 9.70454 3.25V2.5ZM17.7866 13.1005L17.147 12.7088L16.3515 14.0079L16.9911 14.3995L17.6307 14.7912L18.4262 13.4921L17.7866 13.1005ZM3.21341 6.89951L3.85302 7.29117L4.64848 5.99214L4.00887 5.60048L3.36926 5.20881L2.5738 6.50785L3.21341 6.89951ZM4.00887 5.60048L4.64848 5.99214C4.86925 5.63159 5.39631 5.47761 5.82351 5.71016L6.1821 5.05144L6.54068 4.39271C5.44603 3.79684 4.02712 4.13448 3.36926 5.20881L4.00887 5.60048ZM3.79572 8.94855L4.15431 8.28983C3.7505 8.07001 3.64948 7.62357 3.85302 7.29117L3.21341 6.89951L2.5738 6.50785C1.8987 7.61034 2.3191 8.99866 3.43714 9.60728L3.79572 8.94855ZM16.9911 14.3995L16.3515 14.0079C16.1307 14.3684 15.6037 14.5224 15.1765 14.2898L14.8179 14.9486L14.4593 15.6073C15.554 16.2032 16.9729 15.8655 17.6307 14.7912L16.9911 14.3995ZM17.7866 13.1005L18.4262 13.4921C19.1013 12.3897 18.6809 11.0013 17.5629 10.3927L17.2043 11.0514L16.8457 11.7102C17.2495 11.93 17.3505 12.3764 17.147 12.7088L17.7866 13.1005ZM4.00887 14.3995L4.64848 14.0079L3.85302 12.7088L3.21341 13.1005L2.5738 13.4921L3.36925 14.7912L4.00887 14.3995ZM16.9911 5.60049L16.3515 5.99215L17.147 7.29119L17.7866 6.89952L18.4262 6.50786L17.6307 5.20883L16.9911 5.60049ZM17.7866 6.89952L17.147 7.29119C17.3505 7.62358 17.2495 8.07002 16.8457 8.28984L17.2043 8.94856L17.5629 9.60729C18.6809 8.99867 19.1013 7.61035 18.4262 6.50786L17.7866 6.89952ZM14.8179 5.05145L15.1765 5.71017C15.6037 5.47762 16.1307 5.63161 16.3515 5.99215L16.9911 5.60049L17.6307 5.20882C16.9729 4.13449 15.554 3.79685 14.4593 4.39272L14.8179 5.05145ZM3.21341 13.1005L3.85302 12.7088C3.64948 12.3764 3.7505 11.93 4.1543 11.7102L3.79572 11.0514L3.43714 10.3927C2.3191 11.0013 1.8987 12.3897 2.5738 13.4921L3.21341 13.1005ZM4.00887 14.3995L3.36925 14.7912C4.02712 15.8655 5.44603 16.2032 6.54068 15.6073L6.1821 14.9486L5.82351 14.2898C5.39631 14.5224 4.86925 14.3684 4.64848 14.0079L4.00887 14.3995ZM14.7333 5.09748L15.0919 5.75621L15.1765 5.71017L14.8179 5.05145L14.4593 4.39272L14.3748 4.43876L14.7333 5.09748ZM6.1821 5.05144L5.82351 5.71016L5.90808 5.7562L6.26667 5.09747L6.62525 4.43875L6.54068 4.39271L6.1821 5.05144ZM14.8179 14.9486L15.1765 14.2898L15.0919 14.2438L14.7333 14.9025L14.3748 15.5612L14.4593 15.6073L14.8179 14.9486ZM6.26667 14.9025L5.90809 14.2438L5.82352 14.2898L6.1821 14.9486L6.54067 15.6073L6.62524 15.5613L6.26667 14.9025ZM3.79572 8.94855L3.43714 9.60728C3.74828 9.77665 3.74829 10.2233 3.43714 10.3927L3.79572 11.0514L4.1543 11.7102C5.50923 10.9726 5.50923 9.02739 4.15431 8.28983L3.79572 8.94855ZM6.26667 14.9025L6.62525 15.5613C6.95812 15.38 7.36363 15.621 7.36363 16H8.11363H8.86363C8.86363 14.483 7.24049 13.5185 5.90808 14.2438L6.26667 14.9025ZM12.8864 16H13.6364C13.6364 15.621 14.0419 15.38 14.3748 15.5612L14.7333 14.9025L15.0919 14.2438C13.7595 13.5185 12.1364 14.483 12.1364 16H12.8864ZM17.2043 11.0514L17.5629 10.3927C17.2517 10.2233 17.2517 9.77666 17.5629 9.60729L17.2043 8.94856L16.8457 8.28984C15.4908 9.0274 15.4908 10.9726 16.8457 11.7102L17.2043 11.0514ZM6.26667 5.09747L5.90809 5.7562C7.24049 6.4815 8.86363 5.51702 8.86363 4H8.11363H7.36363C7.36363 4.379 6.95812 4.61995 6.62525 4.43875L6.26667 5.09747ZM14.7333 5.09748L14.3748 4.43876C14.0419 4.61996 13.6364 4.379 13.6364 4H12.8864H12.1364C12.1364 5.51703 13.7595 6.48151 15.0919 5.75621L14.7333 5.09748ZM13 10H12.25C12.25 10.9665 11.4665 11.75 10.5 11.75V12.5V13.25C12.2949 13.25 13.75 11.7949 13.75 10H13ZM10.5 12.5V11.75C9.53351 11.75 8.75001 10.9665 8.75001 10H8.00001H7.25001C7.25001 11.7949 8.70508 13.25 10.5 13.25V12.5ZM8.00001 10H8.75001C8.75001 9.0335 9.53351 8.25 10.5 8.25V7.5V6.75C8.70508 6.75 7.25001 8.20507 7.25001 10H8.00001ZM10.5 7.5V8.25C11.4665 8.25 12.25 9.0335 12.25 10H13H13.75C13.75 8.20507 12.2949 6.75 10.5 6.75V7.5Z" fill="white"/>
</svg>
