<svg width="140" height="132" viewBox="0 0 140 132" fill="none" xmlns="http://www.w3.org/2000/svg">
<path d="M69.8329 131.085C106.049 131.085 135.558 101.698 135.558 65.6035C135.436 29.3874 106.049 0 69.8329 0C33.4949 0 4.10742 29.3874 4.10742 65.4816C4.10742 101.698 33.4949 131.085 69.8329 131.085Z" fill="#F3F3F3"/>
<path d="M130.35 38.3706C132.833 38.3706 134.845 36.3582 134.845 33.8757C134.845 31.3933 132.833 29.3809 130.35 29.3809C127.868 29.3809 125.855 31.3933 125.855 33.8757C125.855 36.3582 127.868 38.3706 130.35 38.3706Z" fill="#DFDFDF"/>
<path d="M136.931 20.8298C138.626 20.8298 140.001 19.4554 140.001 17.7601C140.001 16.0648 138.626 14.6904 136.931 14.6904C135.236 14.6904 133.861 16.0648 133.861 17.7601C133.861 19.4554 135.236 20.8298 136.931 20.8298Z" fill="#DFDFDF"/>
<path d="M5.70083 98.4485C8.84932 98.4485 11.4017 95.8962 11.4017 92.7477C11.4017 89.5992 8.84932 87.0469 5.70083 87.0469C2.55235 87.0469 0 89.5992 0 92.7477C0 95.8962 2.55235 98.4485 5.70083 98.4485Z" fill="#DFDFDF"/>
<g filter="url(#filter0_d_161_18701)">
<path d="M111.289 40.8739V112.278C111.289 117.481 107.162 121.607 101.959 121.607H37.7315C32.5287 121.607 28.4023 117.481 28.4023 112.278V18.8067C28.4023 13.6039 32.5287 9.47754 37.7315 9.47754H80.0718C82.4041 9.47754 84.557 10.3746 86.1716 11.9892L108.777 34.5946C110.392 36.3887 111.289 38.5416 111.289 40.8739Z" fill="url(#paint0_linear_161_18701)"/>
</g>
<g filter="url(#filter1_d_161_18701)">
<path d="M84.3281 10.584V30.2517C84.3281 34.0568 87.5503 37.1008 91.2119 37.1008H110.452C110.037 36.2084 109.475 35.3683 108.778 34.5948L86.1731 11.9895C85.617 11.4334 84.9972 10.9625 84.3281 10.584Z" fill="#DEDEDE"/>
</g>
<path d="M56.1161 90.9785H41.1552C40.597 90.9785 40.1504 90.1831 40.1504 89.2285C40.1504 88.274 40.597 87.4785 41.1552 87.4785H56.1161C56.6744 87.4785 57.1209 88.274 57.1209 89.2285C57.1209 90.3421 56.6744 90.9785 56.1161 90.9785Z" fill="#DEDEDE"/>
<path d="M97.84 70.5078H58.6068H54.2828H41.205C40.6777 70.5078 40.1504 71.237 40.1504 72.2578C40.1504 73.1328 40.5723 74.0078 41.205 74.0078H54.2828H58.6068H97.84C98.3673 74.0078 98.8946 73.2786 98.8946 72.2578C98.7891 71.237 98.3673 70.5078 97.84 70.5078Z" fill="#DEDEDE"/>
<path d="M97.8381 61.3701H83.2577H78.2919H41.2069C40.6787 61.3701 40.1504 62.0993 40.1504 63.1201C40.1504 63.9951 40.573 64.8701 41.2069 64.8701H78.2919H83.2577H97.8381C98.3663 64.8701 98.8946 64.1409 98.8946 63.1201C98.789 62.0993 98.3663 61.3701 97.8381 61.3701Z" fill="#DEDEDE"/>
<path d="M97.9338 52.2324H94.1447H90.3556H41.2029C40.6767 52.2324 40.1504 52.9616 40.1504 53.9824C40.1504 54.8574 40.5714 55.7324 41.2029 55.7324H90.3556H94.5657H97.8285C98.3548 55.7324 98.8811 55.0032 98.8811 53.9824C98.9863 53.1074 98.4601 52.2324 97.9338 52.2324Z" fill="#DEDEDE"/>
<defs>
<filter id="filter0_d_161_18701" x="23.4023" y="9.47754" width="92.8867" height="122.13" filterUnits="userSpaceOnUse" color-interpolation-filters="sRGB">
<feFlood flood-opacity="0" result="BackgroundImageFix"/>
<feColorMatrix in="SourceAlpha" type="matrix" values="0 0 0 0 0 0 0 0 0 0 0 0 0 0 0 0 0 0 127 0" result="hardAlpha"/>
<feOffset dy="5"/>
<feGaussianBlur stdDeviation="2.5"/>
<feColorMatrix type="matrix" values="0 0 0 0 0.76763 0 0 0 0 0.70342 0 0 0 0 0.722683 0 0 0 0.27 0"/>
<feBlend mode="normal" in2="BackgroundImageFix" result="effect1_dropShadow_161_18701"/>
<feBlend mode="normal" in="SourceGraphic" in2="effect1_dropShadow_161_18701" result="shape"/>
</filter>
<filter id="filter1_d_161_18701" x="78.1281" y="0.383985" width="38.525" height="38.9166" filterUnits="userSpaceOnUse" color-interpolation-filters="sRGB">
<feFlood flood-opacity="0" result="BackgroundImageFix"/>
<feColorMatrix in="SourceAlpha" type="matrix" values="0 0 0 0 0 0 0 0 0 0 0 0 0 0 0 0 0 0 127 0" result="hardAlpha"/>
<feOffset dy="-4"/>
<feGaussianBlur stdDeviation="3.1"/>
<feColorMatrix type="matrix" values="0 0 0 0 0.768627 0 0 0 0 0.701961 0 0 0 0 0.721569 0 0 0 0.27 0"/>
<feBlend mode="normal" in2="BackgroundImageFix" result="effect1_dropShadow_161_18701"/>
<feBlend mode="normal" in="SourceGraphic" in2="effect1_dropShadow_161_18701" result="shape"/>
</filter>
<linearGradient id="paint0_linear_161_18701" x1="69.8185" y1="6.88387" x2="69.8185" y2="122.816" gradientUnits="userSpaceOnUse">
<stop stop-color="white"/>
<stop offset="0.9964" stop-color="#EBEAEA"/>
</linearGradient>
</defs>
</svg>
