<svg xmlns="http://www.w3.org/2000/svg" viewBox="0 0 400 88.69"><title>2088241</title><g id="OBJECTS"><path d="M181.83,61.18a2.77,2.77,0,0,1,0,3.52,2,2,0,0,1-1.57.73H172c-.31,0-.47.17-.47.51V76.05a2.42,2.42,0,0,1-.66,1.72,2.13,2.13,0,0,1-1.57.69,2,2,0,0,1-1.53-.69,2.48,2.48,0,0,1-.63-1.72V65.94c0-.34-.16-.51-.47-.51H158a2.09,2.09,0,0,1-1.59-.73,2.65,2.65,0,0,1,0-3.52,2.06,2.06,0,0,1,1.59-.73h8.72c.31,0,.47-.17.47-.51V55c0-.39-.16-.59-.47-.59h-4.86A3.6,3.6,0,0,1,159,53.13a4.39,4.39,0,0,1-1.13-3.08V32.84A4.36,4.36,0,0,1,159,29.77a3.61,3.61,0,0,1,2.79-1.25h4.86c.31,0,.47-.19.47-.58v-4.4c0-.39-.16-.58-.47-.58h-7.85a2.12,2.12,0,0,1-1.6-.7,2.39,2.39,0,0,1-.66-1.72,2.42,2.42,0,0,1,.66-1.72,2.14,2.14,0,0,1,1.6-.69h7.85c.31,0,.47-.2.47-.59v-5.2a2.4,2.4,0,0,1,.63-1.65,2,2,0,0,1,3.06,0,2.36,2.36,0,0,1,.64,1.65v5.2c0,.39.15.59.46.59h7.79a2,2,0,0,1,1.56.69,2.45,2.45,0,0,1,.64,1.72,2.41,2.41,0,0,1-.64,1.72,2,2,0,0,1-1.56.7h-7.79c-.31,0-.46.19-.46.58v4.4c0,.39.15.58.46.58h5.19a3.68,3.68,0,0,1,2.77,1.25,4.34,4.34,0,0,1,1.16,3.07V50.05a4.37,4.37,0,0,1-1.16,3.08,3.67,3.67,0,0,1-2.77,1.24H172c-.31,0-.47.2-.47.59v5c0,.34.16.51.47.51h8.25A2,2,0,0,1,181.83,61.18ZM162.16,32.7c-.36,0-.54.19-.54.58v5.57q0,.51.54.51H167c.31,0,.46-.17.46-.51V33.28c0-.39-.15-.58-.46-.58Zm0,10.69q-.54,0-.54.51v5.71c0,.39.18.59.54.59H167c.31,0,.46-.2.46-.59V43.9c0-.34-.15-.51-.46-.51Zm14.44-4c.36,0,.53-.17.53-.51V33.28c0-.39-.17-.58-.53-.58h-5c-.36,0-.53.19-.53.58v5.57c0,.34.17.51.53.51Zm0,10.84c.36,0,.53-.2.53-.59V43.9c0-.34-.17-.51-.53-.51h-5c-.36,0-.53.17-.53.51v5.71c0,.39.17.59.53.59Zm25.76,20.94c0,.39.18.59.54.59h13a2.06,2.06,0,0,1,1.57.69,2.42,2.42,0,0,1,.63,1.68,2.44,2.44,0,0,1-.63,1.69,2.06,2.06,0,0,1-1.57.69H183.32a2,2,0,0,1-1.56-.69,2.44,2.44,0,0,1-.63-1.69,2.42,2.42,0,0,1,.63-1.68,2,2,0,0,1,1.56-.69H196.9c.36,0,.54-.2.54-.59V57.67c0-.39-.18-.59-.54-.59h-9.78a2.06,2.06,0,0,1-1.57-.69,2.44,2.44,0,0,1-.63-1.69,2.55,2.55,0,0,1,.63-1.72,2,2,0,0,1,1.57-.73h26.69a2,2,0,0,1,1.57.73A2.55,2.55,0,0,1,216,54.7a2.44,2.44,0,0,1-.63,1.69,2.06,2.06,0,0,1-1.57.69H202.9c-.36,0-.54.2-.54.59Zm12.72-57.55a2.06,2.06,0,0,1,1.59.73,2.54,2.54,0,0,1,0,3.44,2.06,2.06,0,0,1-1.59.73H185.85a2,2,0,0,1-1.56-.73,2.66,2.66,0,0,1,0-3.44,2,2,0,0,1,1.56-.73Zm-22,32.29a2.27,2.27,0,0,1,.07,1.79A2.14,2.14,0,0,1,192,49a2,2,0,0,1-1.7,0,2.6,2.6,0,0,1-1.23-1.28,83.41,83.41,0,0,0-4.46-9.16,8.44,8.44,0,0,1-.93-3.88,7.67,7.67,0,0,1,.8-3.51q2.19-4.32,3.66-7.91a3.14,3.14,0,0,1,1.33-1.43,2.19,2.19,0,0,1,1.8-.18,1.72,1.72,0,0,1,1.16,1.06,2.07,2.07,0,0,1,0,1.72q-1.87,4-4.93,9.89a.9.9,0,0,0,0,.95A101.41,101.41,0,0,1,193.11,45.88Zm6.12-22.7a2.83,2.83,0,0,1,1.27-1.43,2.19,2.19,0,0,1,1.8-.18,1.72,1.72,0,0,1,1.16,1.06,1.91,1.91,0,0,1,0,1.65q-1.8,3.73-5.13,9.88a.9.9,0,0,0,0,1,80.43,80.43,0,0,1,6.06,10.62,2.39,2.39,0,0,1,.1,1.8,2.05,2.05,0,0,1-2.8,1.28,2.42,2.42,0,0,1-1.23-1.25,89.83,89.83,0,0,0-4.86-9.22,7.38,7.38,0,0,1-1.06-3.89,7.28,7.28,0,0,1,.86-3.44Q197.64,26.77,199.23,23.18ZM216,45.8a2.5,2.5,0,0,1,.13,1.8A1.89,1.89,0,0,1,215,48.88a1.8,1.8,0,0,1-1.66.07,2.37,2.37,0,0,1-1.27-1.24,83.91,83.91,0,0,0-5.26-9.37,7.23,7.23,0,0,1-1.06-3.81,6.84,6.84,0,0,1,.86-3.37q2.34-4.25,4.13-8a3,3,0,0,1,1.33-1.4,2.15,2.15,0,0,1,1.73-.14,1.65,1.65,0,0,1,1.2,1.06,2,2,0,0,1-.07,1.65c-1.24,2.59-3,5.9-5.39,10a.9.9,0,0,0,0,.95A93.87,93.87,0,0,1,216,45.8Z" fill="#333"/><path d="M252.57,14.25a3.35,3.35,0,0,1,1.6-1.69,2.69,2.69,0,0,1,2.2-.22,2.28,2.28,0,0,1,1.53,1.39,2.72,2.72,0,0,1,0,2.2,83.42,83.42,0,0,1-8,14.42,68.84,68.84,0,0,1-10,11.65,3.19,3.19,0,0,1-2,.73h-.2a3.76,3.76,0,0,1-2.2-1,2.71,2.71,0,0,1-.73-1.9,2.53,2.53,0,0,1,.87-2,58.7,58.7,0,0,0,9.58-10.47A65.61,65.61,0,0,0,252.57,14.25Zm-7.48,28.48a2.94,2.94,0,0,1,0-3.81,2.14,2.14,0,0,1,1.69-.8h36a3.57,3.57,0,0,1,2.73,1.24,4.47,4.47,0,0,1,1,2.86A192.81,192.81,0,0,1,284.86,66q-.93,7.18-2.6,9.3a5.52,5.52,0,0,1-2.16,1.83A12.85,12.85,0,0,1,277,78c-.71,0-1.7.07-3,.07s-3,0-5-.14a2.9,2.9,0,0,1-2-.85,4.39,4.39,0,0,1-1.24-2.16,1.83,1.83,0,0,1,.17-1.68,1.38,1.38,0,0,1,1.37-.73c2.66.19,5.16.29,7.52.29a3.48,3.48,0,0,0,2.86-1q1.33-1.39,2.13-7.65t1.4-20.1c0-.34-.11-.52-.47-.52H264.16a.54.54,0,0,0-.6.52,76.37,76.37,0,0,1-1.37,8.16,50.93,50.93,0,0,1-2.39,7.54,34.34,34.34,0,0,1-3.73,7,32.25,32.25,0,0,1-5.56,6,34.92,34.92,0,0,1-7.72,5,3.63,3.63,0,0,1-1.2.22,3.88,3.88,0,0,1-1.06-.15,4,4,0,0,1-1.8-1.54,2.26,2.26,0,0,1-.4-1.32,2.3,2.3,0,0,1,.07-.58,2,2,0,0,1,1.13-1.47,31.74,31.74,0,0,0,7-4.21,27.43,27.43,0,0,0,5-5.12,28.74,28.74,0,0,0,3.36-6A38.9,38.9,0,0,0,257,51a66.77,66.77,0,0,0,1.17-7c0-.34-.09-.52-.4-.52h-11A2.14,2.14,0,0,1,245.09,42.73Zm28.52-26.8a2.77,2.77,0,0,1-.27-1.17,3,3,0,0,1,.14-.88,2.56,2.56,0,0,1,1.33-1.46,2.69,2.69,0,0,1,1.06-.22,3.7,3.7,0,0,1,1,.14,3,3,0,0,1,1.53,1.54A79,79,0,0,0,286.06,26a71.66,71.66,0,0,0,9.25,10.26,3.05,3.05,0,0,1,.93,2.34,3.1,3.1,0,0,1-.73,2,3.23,3.23,0,0,1-2.13,1.17h-.27a2.55,2.55,0,0,1-1.86-.8,83.44,83.44,0,0,1-9.49-11.5A112.62,112.62,0,0,1,273.61,15.93Z" fill="#333"/><path d="M343.86,55.25a2.11,2.11,0,0,1,1.66.77,2.67,2.67,0,0,1,.67,1.79,2.54,2.54,0,0,1-.67,1.76,2.14,2.14,0,0,1-1.66.73H315.17a2.08,2.08,0,0,1-1.6-.73,2.54,2.54,0,0,1-.67-1.76,2.67,2.67,0,0,1,.67-1.79,2.05,2.05,0,0,1,1.6-.77H319c.31,0,.46-.17.46-.51V25.38c0-.35-.15-.52-.46-.52H316.1a2.13,2.13,0,0,1-1.66-.73,2.74,2.74,0,0,1,0-3.59,2.16,2.16,0,0,1,1.66-.73H319c.31,0,.46-.17.46-.51v-6a2.6,2.6,0,0,1,.7-1.79,2.19,2.19,0,0,1,1.67-.77,2.1,2.1,0,0,1,1.63.77,2.66,2.66,0,0,1,.66,1.79v6c0,.34.16.51.47.51H336c.31,0,.47-.17.47-.51V13.37a2.65,2.65,0,0,1,.7-1.87,2.17,2.17,0,0,1,1.66-.77,2.21,2.21,0,0,1,1.67.77,2.69,2.69,0,0,1,.69,1.87V19.3c0,.34.16.51.47.51h2.2a2.18,2.18,0,0,1,1.66.73,2.74,2.74,0,0,1,0,3.59,2.14,2.14,0,0,1-1.66.73h-2.2c-.31,0-.47.17-.47.52V54.74c0,.34.16.51.47.51Zm-22.7,9.08a3.45,3.45,0,0,1,1.53-1.54,2.79,2.79,0,0,1,2.06-.22,2.06,2.06,0,0,1,1.33,1.28,2.27,2.27,0,0,1-.06,1.94,51.48,51.48,0,0,1-7.12,10.77,2.55,2.55,0,0,1-1.84.84,3,3,0,0,1-2-.62,2.16,2.16,0,0,1-.86-1.83,2.08,2.08,0,0,1,.59-1.54A37.89,37.89,0,0,0,321.16,64.33Zm15.31-38.95c0-.35-.16-.52-.47-.52H324.62c-.31,0-.47.17-.47.52v5.49c0,.39.16.58.47.58H336c.31,0,.47-.19.47-.58ZM324.62,35.92c-.31,0-.47.2-.47.59v6.22c0,.39.16.58.47.58H336c.31,0,.47-.19.47-.58V36.51c0-.39-.16-.59-.47-.59Zm0,11.86c-.31,0-.47.2-.47.59v6.37c0,.34.16.51.47.51H336c.31,0,.47-.17.47-.51V48.37c0-.39-.16-.59-.47-.59Zm8.79,18.31a2,2,0,0,1-.4-1.25V64.4a2.24,2.24,0,0,1,.93-1.39,2.47,2.47,0,0,1,1.86-.29,2.66,2.66,0,0,1,1.6,1,62.12,62.12,0,0,1,4.59,7,2.77,2.77,0,0,1,.2,2,2.66,2.66,0,0,1-1.13,1.61,2.08,2.08,0,0,1-1.76.22,2.3,2.3,0,0,1-1.37-1.25A65.59,65.59,0,0,0,333.41,66.09Zm35.74-52.43a3.61,3.61,0,0,1,2.8,1.28,4.48,4.48,0,0,1,1.13,3V71.29a9.57,9.57,0,0,1-.6,3.77,3.92,3.92,0,0,1-2,2c-1.37.63-3.88,1-7.52,1l-.07.07a2.76,2.76,0,0,1-1.93-.81,3.8,3.8,0,0,1-1.19-2,2,2,0,0,1,.2-1.8,1.43,1.43,0,0,1,1.39-.77H364c1.38,0,2.31,0,2.8-.07a1.43,1.43,0,0,0,1.09-.33,1.82,1.82,0,0,0,.3-1.21V53.71c0-.34-.15-.51-.46-.51H354.31c-.36,0-.53.17-.53.51q-1.14,14.06-5.2,22.7a1.83,1.83,0,0,1-1.43,1.1,2,2,0,0,1-1.69-.51,3.42,3.42,0,0,1-1.14-1.76,6,6,0,0,1-.06-.81,3.64,3.64,0,0,1,.26-1.31,47.34,47.34,0,0,0,4-14.61,151.18,151.18,0,0,0,1-17.76V18a4.43,4.43,0,0,1,1.13-3,3.58,3.58,0,0,1,2.79-1.28Zm-15,34c0,.34.16.51.47.51h13.05c.31,0,.46-.17.46-.51V36.29c0-.39-.15-.59-.46-.59H354.77c-.31,0-.46.2-.46.59v4.46C354.31,42.27,354.26,44.56,354.17,47.64Zm14-28.34c0-.34-.15-.51-.46-.51H354.77c-.31,0-.46.17-.46.51V30.13c0,.4.15.59.46.59h12.92c.31,0,.46-.19.46-.59Z" fill="#333"/><path d="M133.58,43.92A37.95,37.95,0,1,0,63.05,63.37H83.22a23.07,23.07,0,1,1,13,3.62.09.09,0,0,1-.09.07H48.77a.88.88,0,0,0-.32.07H48a2.76,2.76,0,0,0,0,5.51H70.72l.16,0c.44.39.89.76,1.35,1.12a1.77,1.77,0,0,1,.14.69,1.85,1.85,0,0,1-1.85,1.85H63.18l-.26,0H48.54l-.26,0H48v0a2.75,2.75,0,0,0,0,5.39v.11H96.87v0A38,38,0,0,0,133.58,43.92Z" fill="#f65572"/><path d="M40.85,76.31H29.67a2.76,2.76,0,0,0,0,5.51H40.85a2.76,2.76,0,0,0,0-5.51Z" fill="#f65572"/></g></svg>