<svg width="150" height="34" viewBox="0 0 150 34" fill="none" xmlns="http://www.w3.org/2000/svg">
<path d="M68.2408 23.2629C68.3925 23.4474 68.4755 23.6788 68.4755 23.9177C68.4755 24.1565 68.3925 24.3879 68.2408 24.5724C68.17 24.6585 68.0807 24.7276 67.9797 24.7746C67.8786 24.8216 67.7682 24.8453 67.6567 24.8439H64.584C64.4687 24.8439 64.4092 24.9072 64.4092 25.0337V28.7946C64.4149 29.0319 64.3266 29.2619 64.1636 29.4344C64.0894 29.5153 63.9991 29.58 63.8986 29.6241C63.7981 29.6683 63.6894 29.6911 63.5796 29.6911C63.4718 29.6921 63.3651 29.6697 63.2668 29.6254C63.1685 29.581 63.0811 29.5159 63.0104 29.4344C62.8535 29.2589 62.7697 29.03 62.7761 28.7946V25.0337C62.7761 24.9072 62.7166 24.8439 62.6012 24.8439H59.376C59.2636 24.8441 59.1526 24.8199 59.0505 24.773C58.9484 24.7262 58.8576 24.6577 58.7845 24.5724C58.6242 24.392 58.5357 24.159 58.5357 23.9177C58.5357 23.6763 58.6242 23.4434 58.7845 23.2629C58.8571 23.177 58.9478 23.1082 59.05 23.0612C59.1522 23.0143 59.2635 22.9905 59.376 22.9914H62.6198C62.7352 22.9914 62.7947 22.9281 62.7947 22.8017V20.964C62.7947 20.8189 62.7352 20.7445 62.6198 20.7445H60.8119C60.6102 20.7504 60.4097 20.7107 60.2254 20.6282C60.0412 20.5458 59.878 20.4228 59.748 20.2683C59.4651 19.9551 59.3144 19.5445 59.3276 19.1226V12.7205C59.3142 12.2997 59.465 11.8901 59.748 11.5784C59.8764 11.4297 60.036 11.311 60.2153 11.2306C60.3946 11.1503 60.5894 11.1103 60.7859 11.1134H62.5938C62.7091 11.1134 62.7686 11.0427 62.7686 10.8977V9.26086C62.7686 9.11578 62.7091 9.0451 62.5938 9.0451H59.6736C59.5616 9.04646 59.4506 9.02394 59.3479 8.97904C59.2453 8.93414 59.1534 8.86789 59.0784 8.7847C58.9972 8.6996 58.9337 8.59922 58.8915 8.48939C58.8494 8.37956 58.8294 8.26245 58.8329 8.14486C58.8272 7.90755 58.9154 7.67759 59.0784 7.50502C59.1541 7.42288 59.2462 7.35758 59.3487 7.31336C59.4512 7.26914 59.5619 7.24699 59.6736 7.24834H62.5938C62.7091 7.24834 62.7686 7.17394 62.7686 7.02886V5.09446C62.7659 4.86751 62.8497 4.64803 63.003 4.48066C63.0728 4.39771 63.16 4.33102 63.2583 4.28527C63.3566 4.23952 63.4637 4.21582 63.5722 4.21582C63.6806 4.21582 63.7877 4.23952 63.886 4.28527C63.9844 4.33102 64.0715 4.39771 64.1413 4.48066C64.2973 4.64663 64.3827 4.86672 64.3794 5.09446V7.02886C64.3794 7.17394 64.4352 7.24834 64.5505 7.24834H67.4484C67.5581 7.2457 67.667 7.26734 67.7673 7.31171C67.8676 7.35609 67.9569 7.4221 68.0287 7.50502C68.188 7.6794 68.2733 7.90879 68.2668 8.14486C68.2749 8.38119 68.1894 8.61117 68.0287 8.7847C67.9573 8.8683 67.8681 8.93502 67.7678 8.98004C67.6674 9.02507 67.5584 9.04729 67.4484 9.0451H64.5505C64.4352 9.0451 64.3794 9.11578 64.3794 9.26086V10.8977C64.3794 11.0427 64.4352 11.1134 64.5505 11.1134H66.4812C66.6762 11.1131 66.869 11.1544 67.0467 11.2346C67.2244 11.3148 67.3829 11.432 67.5116 11.5784C67.7994 11.8879 67.9543 12.298 67.9432 12.7205V19.1226C67.9541 19.5461 67.7993 19.9573 67.5116 20.2683C67.3827 20.4143 67.2241 20.5309 67.0463 20.6105C66.8686 20.69 66.6759 20.7307 66.4812 20.7296H64.584C64.4687 20.7296 64.4092 20.804 64.4092 20.9491V22.8091C64.4092 22.9356 64.4687 22.9988 64.584 22.9988H67.653C67.7645 22.996 67.8752 23.0182 67.977 23.0639C68.0787 23.1097 68.1689 23.1777 68.2408 23.2629ZM60.9235 12.6684C60.7896 12.6684 60.7226 12.7391 60.7226 12.8841V14.9562C60.7226 15.0827 60.7896 15.1459 60.9235 15.1459H62.724C62.8393 15.1459 62.8951 15.0827 62.8951 14.9562V12.8841C62.8951 12.7391 62.8393 12.6684 62.724 12.6684H60.9235ZM60.9235 16.6451C60.7896 16.6451 60.7226 16.7083 60.7226 16.8348V18.9589C60.7226 19.104 60.7896 19.1784 60.9235 19.1784H62.724C62.8393 19.1784 62.8951 19.104 62.8951 18.9589V16.8348C62.8951 16.7083 62.8393 16.6451 62.724 16.6451H60.9235ZM66.2952 15.1571C66.4291 15.1571 66.4924 15.0938 66.4924 14.9673V12.8841C66.4924 12.7391 66.4291 12.6684 66.2952 12.6684H64.4352C64.3013 12.6684 64.238 12.7391 64.238 12.8841V14.9562C64.238 15.0827 64.3013 15.1459 64.4352 15.1459L66.2952 15.1571ZM66.2952 19.1895C66.4291 19.1895 66.4924 19.1151 66.4924 18.9701V16.8348C66.4924 16.7083 66.4291 16.6451 66.2952 16.6451H64.4352C64.3013 16.6451 64.238 16.7083 64.238 16.8348V18.9589C64.238 19.104 64.3013 19.1784 64.4352 19.1784L66.2952 19.1895ZM75.8779 26.9792C75.8779 27.1243 75.9449 27.1987 76.0788 27.1987H80.9148C81.0249 27.197 81.134 27.2191 81.2348 27.2634C81.3356 27.3077 81.4256 27.3732 81.4988 27.4554C81.6542 27.626 81.7381 27.8497 81.7332 28.0803C81.7382 28.3121 81.6544 28.5371 81.4988 28.709C81.4256 28.7912 81.3356 28.8567 81.2348 28.901C81.134 28.9453 81.0249 28.9674 80.9148 28.9657H68.795C68.6854 28.9684 68.5765 28.9467 68.4761 28.9023C68.3758 28.858 68.2865 28.7919 68.2147 28.709C68.0592 28.5371 67.9753 28.3121 67.9804 28.0803C67.9755 27.8497 68.0594 27.626 68.2147 27.4554C68.2865 27.3725 68.3758 27.3064 68.4761 27.2621C68.5765 27.2177 68.6854 27.1961 68.795 27.1987H73.8468C73.9807 27.1987 74.0477 27.1243 74.0477 26.9792V21.9572C74.0477 21.8121 73.9807 21.7377 73.8468 21.7377H70.2086C70.0986 21.7394 69.9894 21.7174 69.8886 21.6731C69.7879 21.6288 69.6978 21.5633 69.6246 21.4811C69.4691 21.3091 69.3852 21.0842 69.3902 20.8524C69.3864 20.6174 69.4699 20.3894 69.6246 20.2125C69.6954 20.1264 69.7846 20.0573 69.8857 20.0103C69.9868 19.9633 70.0972 19.9396 70.2086 19.941H80.1373C80.2488 19.9396 80.3592 19.9633 80.4603 20.0103C80.5613 20.0573 80.6506 20.1264 80.7214 20.2125C80.8747 20.39 80.9569 20.6179 80.952 20.8524C80.957 21.0842 80.8732 21.3091 80.7176 21.4811C80.6444 21.5633 80.5544 21.6288 80.4536 21.6731C80.3528 21.7174 80.2437 21.7394 80.1336 21.7377H76.0788C75.9449 21.7377 75.8779 21.8121 75.8779 21.9572V26.9792ZM80.6098 5.57062C80.7222 5.5697 80.8335 5.59356 80.9358 5.64049C81.038 5.68742 81.1286 5.75628 81.2012 5.84218C81.3618 6.0166 81.4509 6.24498 81.4509 6.48202C81.4509 6.71906 81.3618 6.94744 81.2012 7.12186C81.1286 7.20776 81.038 7.27662 80.9358 7.32355C80.8335 7.37049 80.7222 7.39434 80.6098 7.39342H69.7362C69.6254 7.39425 69.5157 7.3703 69.4153 7.32331C69.3149 7.27633 69.2263 7.2075 69.1559 7.12186C69.0044 6.9431 68.9212 6.71636 68.9212 6.48202C68.9212 6.24768 69.0044 6.02094 69.1559 5.84218C69.2263 5.75654 69.3149 5.68772 69.4153 5.64073C69.5157 5.59375 69.6254 5.56979 69.7362 5.57062H80.6098ZM72.4258 17.5825C72.475 17.6859 72.5028 17.7983 72.5072 17.9128C72.5117 18.0272 72.4929 18.1414 72.4518 18.2484C72.4182 18.3544 72.3628 18.4522 72.2891 18.5355C72.2154 18.6188 72.1251 18.6857 72.024 18.732C71.9251 18.7784 71.8171 18.8025 71.7078 18.8025C71.5985 18.8025 71.4905 18.7784 71.3916 18.732C71.1879 18.6319 71.026 18.4633 70.934 18.2558C70.451 17.0872 69.8969 15.9493 69.2749 14.8483C69.0459 14.4017 68.9273 13.9068 68.929 13.4049C68.9232 12.9523 69.0252 12.5047 69.2266 12.0992C69.7697 11.0279 70.2235 10.047 70.5881 9.1567C70.6923 8.9313 70.8656 8.74497 71.0828 8.62474C71.1832 8.56653 71.2949 8.53044 71.4104 8.51889C71.5259 8.50735 71.6425 8.5206 71.7524 8.55778C71.8505 8.5845 71.9408 8.63421 72.0159 8.70278C72.0909 8.77136 72.1485 8.85682 72.184 8.9521C72.2298 9.05252 72.2536 9.16163 72.2536 9.27202C72.2536 9.38242 72.2298 9.49152 72.184 9.59194C71.7202 10.5839 71.1089 11.8103 70.35 13.271C70.317 13.3241 70.2996 13.3853 70.2996 13.4477C70.2996 13.5102 70.317 13.5714 70.35 13.6244C71.123 14.8977 71.8198 16.2157 72.4369 17.5713L72.4258 17.5825ZM74.7024 9.1381C74.7934 8.91133 74.9604 8.72326 75.1748 8.60614C75.2752 8.54793 75.3869 8.51184 75.5024 8.50029C75.6179 8.48875 75.7345 8.502 75.8444 8.53918C75.9425 8.5659 76.0328 8.61561 76.1079 8.68418C76.1829 8.75276 76.2405 8.83822 76.276 8.9335C76.3218 9.02931 76.3457 9.13418 76.3457 9.2404C76.3457 9.34663 76.3218 9.4515 76.276 9.5473C75.8296 10.4723 75.1934 11.6975 74.3676 13.2227C74.3308 13.2777 74.3112 13.3424 74.3112 13.4087C74.3112 13.4749 74.3308 13.5396 74.3676 13.5947C75.2182 14.8524 75.9718 16.1731 76.6219 17.5453C76.7213 17.7551 76.7346 17.9954 76.6591 18.2149C76.6279 18.3187 76.5749 18.4146 76.5036 18.4962C76.4324 18.5779 76.3446 18.6435 76.246 18.6885C76.1474 18.7336 76.0404 18.7571 75.932 18.7575C75.8237 18.758 75.7164 18.7353 75.6175 18.6911C75.4122 18.5987 75.249 18.4328 75.16 18.2261C74.6242 17.0488 74.0206 15.9035 73.352 14.7962C73.0888 14.3598 72.9523 13.8588 72.9577 13.3491C72.9573 12.9027 73.0672 12.4631 73.2776 12.0695C73.8406 10.9981 74.3192 10.0173 74.7136 9.12694L74.7024 9.1381ZM80.952 17.5416C81.0509 17.751 81.0682 17.9897 81.0004 18.2112C80.9726 18.318 80.92 18.4167 80.847 18.4994C80.774 18.5822 80.6825 18.6465 80.58 18.6873C80.4867 18.741 80.3819 18.7713 80.2744 18.7759C80.1669 18.7804 80.0599 18.759 79.9625 18.7134C79.7512 18.6266 79.5818 18.4613 79.49 18.2521C78.9129 17.0496 78.2594 15.8853 77.5333 14.7665C77.2727 14.3398 77.1362 13.849 77.139 13.3491C77.1358 12.9107 77.246 12.4788 77.4589 12.0955C78.0392 11.0415 78.5514 10.0495 78.9953 9.1195C79.0983 8.89612 79.2722 8.71303 79.49 8.5987C79.5878 8.54577 79.6955 8.5138 79.8063 8.50483C79.9171 8.49587 80.0286 8.5101 80.1336 8.54662C80.2354 8.56905 80.3297 8.61702 80.4078 8.68601C80.4859 8.75499 80.5452 8.84273 80.58 8.94094C80.6196 9.03921 80.6378 9.1448 80.6333 9.25065C80.6288 9.35651 80.6018 9.46018 80.554 9.55474C80.0927 10.5182 79.438 11.7495 78.5489 13.2747C78.5159 13.3278 78.4985 13.389 78.4985 13.4514C78.4985 13.5139 78.5159 13.5751 78.5489 13.6281C79.4349 14.8785 80.2377 16.1858 80.952 17.5416Z" fill="white"/>
<path d="M94.5561 5.80557C94.673 5.53161 94.8841 5.30859 95.1513 5.17689C95.2741 5.10604 95.4106 5.06211 95.5517 5.048C95.6927 5.03389 95.8352 5.04993 95.9697 5.09505C96.0985 5.13031 96.2173 5.19552 96.3162 5.28538C96.4151 5.37524 96.4914 5.4872 96.5388 5.61213C96.5958 5.74102 96.6253 5.8804 96.6253 6.02133C96.6253 6.16226 96.5958 6.30164 96.5388 6.43053C95.7264 8.31251 94.7295 10.1094 93.5628 11.7948C92.4883 13.3736 91.2405 14.8272 89.8428 16.1286C89.6332 16.3016 89.3706 16.3975 89.0988 16.4001H89.0244C88.7181 16.3696 88.4304 16.2388 88.206 16.0281C88.0271 15.8368 87.9297 15.5833 87.9345 15.3213C87.9295 15.181 87.956 15.0414 88.012 14.9127C88.068 14.7839 88.1521 14.6694 88.2581 14.5773C89.5992 13.428 90.7958 12.1201 91.8219 10.6825C92.9171 9.16695 93.8345 7.53058 94.5561 5.80557ZM91.7735 16.4001C91.6052 16.2023 91.5128 15.9511 91.5128 15.6915C91.5128 15.4318 91.6052 15.1806 91.7735 14.9828C91.8489 14.8889 91.9447 14.8133 92.0536 14.7617C92.1625 14.7102 92.2817 14.684 92.4022 14.6852H105.794C105.987 14.6839 106.177 14.7244 106.353 14.8041C106.528 14.8837 106.684 15.0006 106.81 15.1465C107.054 15.447 107.185 15.8233 107.182 16.2104C107.16 19.169 106.955 22.1233 106.568 25.0566C106.337 26.8372 106.015 27.9904 105.601 28.5162C105.397 28.8091 105.12 29.0437 104.797 29.1969C104.428 29.3527 104.04 29.4615 103.644 29.5206C103.38 29.5206 103.012 29.5466 102.528 29.5466C102.044 29.5466 101.412 29.5466 100.668 29.4945C100.388 29.4895 100.122 29.3762 99.924 29.1783C99.6959 28.9606 99.5357 28.6816 99.4627 28.3748C99.4223 28.2732 99.407 28.1634 99.418 28.0546C99.429 27.9458 99.466 27.8413 99.526 27.7498C99.5739 27.6587 99.6481 27.584 99.739 27.5356C99.8299 27.4872 99.9332 27.4672 100.036 27.4783C101.025 27.549 101.955 27.5862 102.833 27.5862C103.027 27.6084 103.223 27.5864 103.408 27.522C103.592 27.4576 103.759 27.3524 103.897 27.2142C104.227 26.8694 104.491 25.9208 104.689 24.3684C104.888 22.8159 105.061 20.3235 105.21 16.8912C105.21 16.7647 105.169 16.6977 105.035 16.6977H98.8675C98.84 16.6946 98.812 16.6973 98.7855 16.7055C98.759 16.7137 98.7345 16.7274 98.7136 16.7455C98.6926 16.7637 98.6756 16.786 98.6637 16.8111C98.6518 16.8362 98.6452 16.8634 98.6443 16.8912C98.5294 17.9115 98.3593 18.9248 98.1347 19.9267C97.9115 20.8833 97.6142 21.8211 97.2456 22.7316C96.8852 23.6502 96.4196 24.5241 95.8581 25.3356C95.2662 26.1643 94.5711 26.9144 93.7897 27.5676C92.9186 28.3115 91.953 28.9369 90.9179 29.4276C90.7748 29.4798 90.6238 29.5075 90.4715 29.5094C90.3381 29.5091 90.2054 29.4903 90.0772 29.4536C89.8013 29.3346 89.5678 29.1349 89.4076 28.8807C89.308 28.7366 89.256 28.5649 89.2588 28.3897C89.2582 28.317 89.267 28.2444 89.2848 28.1739C89.3055 28.0556 89.3546 27.9441 89.4278 27.8489C89.501 27.7536 89.5962 27.6775 89.7052 27.6271C90.637 27.2194 91.5123 26.693 92.3092 26.061C93.0097 25.51 93.635 24.8697 94.1692 24.1563C94.6736 23.465 95.0933 22.7157 95.4191 21.9243C95.7528 21.1333 96.0155 20.3142 96.204 19.4766C96.3952 18.6169 96.5404 17.7477 96.6393 16.8726C96.6393 16.7461 96.6058 16.6791 96.4905 16.6791H92.3985C92.2801 16.682 92.1626 16.6585 92.0545 16.6102C91.9463 16.562 91.8504 16.4902 91.7735 16.4001ZM102.383 6.43053C102.318 6.29454 102.284 6.14597 102.282 5.99529C102.283 5.88418 102.301 5.77385 102.335 5.66793C102.377 5.54915 102.443 5.43997 102.527 5.34674C102.612 5.2535 102.715 5.17807 102.829 5.12481C102.954 5.07109 103.088 5.04324 103.224 5.04297C103.349 5.04325 103.475 5.06077 103.596 5.09505C103.85 5.20827 104.053 5.41262 104.165 5.66793C104.976 7.25407 105.93 8.76317 107.014 10.1766C108.036 11.5567 109.188 12.8348 110.455 13.9933C110.572 14.1054 110.663 14.241 110.722 14.3912C110.782 14.5413 110.809 14.7024 110.801 14.8638C110.801 15.136 110.705 15.3996 110.53 15.6078C110.332 15.8505 110.048 16.0066 109.737 16.043H109.637C109.507 16.0433 109.379 16.017 109.26 15.9658C109.141 15.9146 109.034 15.8396 108.945 15.7454C107.643 14.4276 106.461 12.9959 105.415 11.4674C104.287 9.86151 103.274 8.17841 102.383 6.43053Z" fill="white"/>
<path d="M128.516 21.0575C128.634 21.0559 128.75 21.0807 128.857 21.1303C128.964 21.1799 129.059 21.2529 129.133 21.344C129.296 21.5276 129.385 21.7647 129.383 22.0099C129.387 22.252 129.297 22.4863 129.133 22.6646C129.057 22.7523 128.962 22.8221 128.855 22.869C128.748 22.9159 128.632 22.9388 128.516 22.9361H117.843C117.73 22.9371 117.618 22.9133 117.516 22.8664C117.413 22.8194 117.321 22.7506 117.248 22.6646C117.084 22.4863 116.995 22.252 116.999 22.0099C116.997 21.7647 117.086 21.5276 117.248 21.344C117.319 21.2547 117.41 21.1825 117.513 21.133C117.616 21.0834 117.729 21.0576 117.843 21.0575H119.268C119.383 21.0575 119.439 20.9943 119.439 20.8678V9.94589C119.439 9.81569 119.383 9.75245 119.268 9.75245H118.189C118.073 9.75542 117.957 9.73261 117.85 9.68567C117.743 9.63873 117.648 9.56881 117.572 9.48089C117.411 9.29555 117.323 9.05847 117.323 8.81315C117.323 8.56784 117.411 8.33076 117.572 8.14541C117.649 8.0581 117.744 7.98858 117.851 7.94169C117.957 7.8948 118.073 7.87165 118.189 7.87385H119.268C119.383 7.87385 119.439 7.81061 119.439 7.68413V5.45213C119.438 5.20506 119.531 4.96681 119.7 4.78625C119.776 4.69633 119.871 4.62413 119.979 4.57467C120.086 4.52521 120.203 4.49967 120.321 4.49981C120.437 4.49955 120.551 4.52511 120.656 4.57466C120.761 4.62421 120.854 4.69649 120.927 4.78625C121.088 4.97022 121.176 5.20745 121.173 5.45213V7.68413C121.173 7.81061 121.232 7.87385 121.347 7.87385H125.592C125.707 7.87385 125.767 7.81061 125.767 7.68413V5.47817C125.76 5.22121 125.853 4.97159 126.027 4.78253C126.103 4.6927 126.198 4.62052 126.304 4.57104C126.411 4.52156 126.527 4.49598 126.645 4.49609C126.763 4.49644 126.879 4.5222 126.987 4.57163C127.094 4.62106 127.189 4.69299 127.266 4.78253C127.437 4.97299 127.529 5.22198 127.523 5.47817V7.68413C127.523 7.81061 127.582 7.87385 127.698 7.87385H128.516C128.632 7.87215 128.748 7.89552 128.854 7.94238C128.961 7.98924 129.056 8.05848 129.133 8.14541C129.294 8.33076 129.383 8.56784 129.383 8.81315C129.383 9.05847 129.294 9.29555 129.133 9.48089C129.057 9.56861 128.962 9.63839 128.855 9.68532C128.748 9.73224 128.632 9.75516 128.516 9.75245H127.698C127.582 9.75245 127.523 9.81569 127.523 9.94589V20.8678C127.523 20.9943 127.582 21.0575 127.698 21.0575H128.516ZM120.072 24.4353C120.195 24.1881 120.394 23.9872 120.641 23.8624C120.876 23.7378 121.151 23.7085 121.407 23.7806C121.521 23.816 121.625 23.8775 121.711 23.9601C121.797 24.0428 121.862 24.1444 121.902 24.2567C121.952 24.3712 121.975 24.4953 121.972 24.6201C121.968 24.7449 121.936 24.8673 121.879 24.9784C121.168 26.4197 120.278 27.7658 119.231 28.9849C119.144 29.0809 119.039 29.1581 118.921 29.2119C118.803 29.2656 118.676 29.2947 118.546 29.2973C118.279 29.3123 118.015 29.2304 117.802 29.0667C117.698 28.9879 117.614 28.8847 117.558 28.7661C117.502 28.6474 117.476 28.5169 117.482 28.3859C117.478 28.2805 117.495 28.1753 117.533 28.0768C117.571 27.9783 117.628 27.8885 117.702 27.8131C118.653 26.8095 119.452 25.6714 120.072 24.4353ZM125.767 9.94589C125.767 9.81569 125.707 9.75245 125.592 9.75245H121.359C121.243 9.75245 121.184 9.81569 121.184 9.94589V11.9882C121.184 12.1333 121.243 12.2039 121.359 12.2039H125.592C125.707 12.2039 125.767 12.1333 125.767 11.9882V9.94589ZM121.359 13.8668C121.243 13.8668 121.184 13.9412 121.184 14.0863V16.4001C121.184 16.5452 121.243 16.6159 121.359 16.6159H125.592C125.707 16.6159 125.767 16.5452 125.767 16.4001V14.0863C125.767 13.9412 125.707 13.8668 125.592 13.8668H121.359ZM121.359 18.2787C121.243 18.2787 121.184 18.3531 121.184 18.4982V20.8678C121.184 20.9943 121.243 21.0575 121.359 21.0575H125.592C125.707 21.0575 125.767 20.9943 125.767 20.8678V18.4982C125.767 18.3531 125.707 18.2787 125.592 18.2787H121.359ZM124.629 25.09C124.528 24.9562 124.476 24.7923 124.48 24.625V24.4613C124.524 24.2508 124.648 24.0655 124.826 23.9443C125.033 23.8184 125.282 23.7796 125.518 23.8364C125.755 23.8835 125.967 24.0158 126.113 24.2084C126.74 25.037 127.31 25.907 127.82 26.8124C127.937 27.0423 127.964 27.3078 127.895 27.5564C127.836 27.8024 127.686 28.0167 127.474 28.1553C127.378 28.2164 127.269 28.2553 127.156 28.2695C127.043 28.2836 126.928 28.2726 126.82 28.2371C126.707 28.1992 126.604 28.1383 126.516 28.0583C126.428 27.9782 126.358 27.8808 126.31 27.7721C125.808 26.8426 125.246 25.9467 124.629 25.09ZM137.924 5.58605C138.122 5.58373 138.318 5.62521 138.498 5.70753C138.678 5.78985 138.838 5.91097 138.965 6.06221C139.238 6.36963 139.388 6.7671 139.386 7.17821V27.0244C139.406 27.5021 139.33 27.9791 139.163 28.4269C139.016 28.7588 138.751 29.0241 138.419 29.1709C137.909 29.4052 136.975 29.5429 135.621 29.5429L135.595 29.5689C135.325 29.5666 135.068 29.4584 134.877 29.2676C134.655 29.072 134.501 28.8118 134.434 28.5236C134.393 28.414 134.379 28.2962 134.392 28.1799C134.404 28.0635 134.445 27.9519 134.509 27.854C134.557 27.7604 134.632 27.6833 134.724 27.6323C134.816 27.5813 134.921 27.5588 135.026 27.5675H136.008C136.521 27.5675 136.867 27.5675 137.05 27.5415C137.122 27.5499 137.195 27.5433 137.265 27.5222C137.335 27.5011 137.4 27.4659 137.455 27.4187C137.544 27.2865 137.584 27.1271 137.567 26.9686V20.4847C137.567 20.3582 137.511 20.2949 137.396 20.2949H132.403C132.269 20.2949 132.206 20.3582 132.206 20.4847C131.923 23.9715 131.279 26.7863 130.272 28.9291C130.226 29.0374 130.153 29.1321 130.06 29.2038C129.966 29.2755 129.856 29.3218 129.74 29.3383C129.627 29.3568 129.512 29.3494 129.403 29.3165C129.294 29.2836 129.194 29.2262 129.111 29.1485C128.905 28.9801 128.756 28.7511 128.687 28.4938C128.673 28.394 128.665 28.2933 128.665 28.1925C128.667 28.0255 128.699 27.8603 128.761 27.7052C129.546 25.9851 130.048 24.15 130.249 22.2703C130.503 20.0772 130.627 17.8712 130.621 15.6635V7.20053C130.617 6.7891 130.767 6.39101 131.042 6.08453C131.169 5.93317 131.328 5.81193 131.507 5.72957C131.687 5.64722 131.882 5.60582 132.08 5.60837L137.924 5.58605ZM132.344 18.2341C132.344 18.3605 132.403 18.4238 132.519 18.4238H137.373C137.489 18.4238 137.544 18.3605 137.544 18.2341V14.0044C137.544 13.8593 137.489 13.7849 137.373 13.7849H132.574C132.459 13.7849 132.403 13.8593 132.403 14.0044V15.6635C132.403 16.229 132.385 17.0809 132.351 18.2266L132.344 18.2341ZM137.552 7.69157C137.552 7.56509 137.496 7.50185 137.381 7.50185H132.574C132.459 7.50185 132.403 7.56509 132.403 7.69157V11.7129C132.403 11.8617 132.459 11.9324 132.574 11.9324H137.381C137.496 11.9324 137.552 11.8617 137.552 11.7129V7.69157Z" fill="white"/>
<path d="M50.2918 16.8423C50.2924 14.6679 49.7908 12.5226 48.8259 10.5739C47.8611 8.62526 46.4591 6.92579 44.7294 5.60809C42.9996 4.29038 40.9889 3.39006 38.8539 2.97733C36.719 2.56461 34.5175 2.65064 32.4213 3.22871C30.3251 3.80678 28.3907 4.86128 26.7691 6.30995C25.1475 7.75862 23.8824 9.56232 23.0726 11.5804C22.2627 13.5984 21.93 15.7762 22.1004 17.944C22.2707 20.1118 22.9395 22.211 24.0546 24.0777H31.5578C29.8249 22.9709 28.547 21.2787 27.9566 19.3091C27.3663 17.3394 27.5027 15.2233 28.3411 13.3458C29.1796 11.4682 30.6642 9.95416 32.5249 9.07905C34.3856 8.20394 36.4987 8.02599 38.4795 8.57758C40.4604 9.12918 42.1774 10.3736 43.318 12.0845C44.4586 13.7954 44.947 15.8589 44.6944 17.8995C44.4417 19.9401 43.4648 21.8223 41.9414 23.2033C40.418 24.5843 38.4494 25.3725 36.3938 25.4244C36.3921 25.4319 36.3879 25.4386 36.3818 25.4434C36.3757 25.4481 36.3681 25.4506 36.3604 25.4504H18.7424C18.7015 25.4516 18.6611 25.4604 18.6234 25.4765H18.456C18.1949 25.4922 17.9496 25.607 17.7703 25.7975C17.5909 25.988 17.4911 26.2397 17.4911 26.5013C17.4911 26.7629 17.5909 27.0147 17.7703 27.2051C17.9496 27.3956 18.1949 27.5104 18.456 27.5262H26.9078H26.9674C27.131 27.6713 27.2984 27.8089 27.4696 27.9428C27.5039 28.024 27.5217 28.1113 27.5216 28.1995C27.5216 28.382 27.4491 28.5571 27.3201 28.6861C27.191 28.8152 27.016 28.8877 26.8334 28.8877H24.103H24.0062H18.6569H18.5602H18.456C18.2247 28.9347 18.0168 29.0601 17.8675 29.2428C17.7182 29.4255 17.6366 29.6543 17.6366 29.8902C17.6366 30.1262 17.7182 30.3549 17.8675 30.5377C18.0168 30.7204 18.2247 30.8458 18.456 30.8928V30.9337H36.6356C40.2932 30.8095 43.7601 29.2716 46.307 26.6435C48.8539 24.0154 50.2823 20.502 50.2918 16.8423Z" fill="white"/>
<path d="M15.7962 28.8916H11.6372C11.3761 28.9073 11.1308 29.0222 10.9515 29.2126C10.7722 29.4031 10.6723 29.6549 10.6723 29.9165C10.6723 30.1781 10.7722 30.4298 10.9515 30.6203C11.1308 30.8108 11.3761 30.9256 11.6372 30.9413H15.7962C16.0573 30.9256 16.3026 30.8108 16.482 30.6203C16.6613 30.4298 16.7612 30.1781 16.7612 29.9165C16.7612 29.6549 16.6613 29.4031 16.482 29.2126C16.3026 29.0222 16.0573 28.9073 15.7962 28.8916Z" fill="white"/>
</svg>
