<svg width="20" height="20" viewBox="0 0 20 20" fill="none" xmlns="http://www.w3.org/2000/svg">
<path d="M1.15979 12.2509C0.759785 12.6909 0.529785 13.2709 0.529785 13.8709C0.529785 14.5109 0.789785 15.1309 1.23979 15.5909C1.69979 16.0509 2.30979 16.3009 2.95979 16.3009H7.01978V14.6809H2.95979C2.74979 14.6809 2.53979 14.5909 2.38979 14.4409C2.23979 14.2909 2.14979 14.0809 2.14979 13.8709C2.14979 13.7609 2.16979 13.6609 2.21979 13.5609C2.25979 13.4609 2.32979 13.3709 2.39979 13.3009C2.46979 13.2209 2.55979 13.1609 2.64979 13.1209C2.74979 13.0809 2.84979 13.0609 2.94979 13.0609H7.00979V11.4409H2.95979C2.74979 11.4409 2.53979 11.3509 2.38979 11.2009C2.23979 11.0509 2.14979 10.8409 2.14979 10.6309C2.14979 10.5209 2.16979 10.4209 2.21979 10.3209C2.25979 10.2209 2.32979 10.1309 2.39979 10.0609C2.46979 9.98094 2.55979 9.92094 2.64979 9.88094C2.74979 9.84094 2.84979 9.82094 2.94979 9.82094H7.00979V8.20094H2.95979C2.74979 8.20094 2.53979 8.11094 2.38979 7.96094C2.23979 7.81094 2.14979 7.60094 2.14979 7.39094C2.14979 7.28094 2.16979 7.18094 2.21979 7.08094C2.25979 6.98094 2.32979 6.89094 2.39979 6.82094C2.46979 6.74094 2.55979 6.68094 2.64979 6.64094C2.74979 6.60094 2.84979 6.58094 2.94979 6.58094H7.00979V4.96094H2.95979C2.48979 4.96094 2.02979 5.10094 1.63979 5.36094C1.24979 5.62094 0.939785 5.98094 0.749785 6.41094C0.559785 6.84094 0.499785 7.31094 0.569785 7.77094C0.639785 8.23094 0.849785 8.66094 1.15979 9.01094C0.759785 9.46094 0.539785 10.0309 0.539785 10.6309C0.539785 11.2309 0.759785 11.8109 1.15979 12.2509Z" fill="#986E49"/>
<path d="M7.33996 6.8207C7.42996 6.9107 7.48996 7.0307 7.52996 7.1507V6.4007H8.97996C8.85996 6.1307 8.69996 5.8907 8.48996 5.6807C8.02996 5.2207 7.41996 4.9707 6.76996 4.9707H2.70996V6.5907H6.76996C6.97996 6.5907 7.18996 6.6807 7.33996 6.8307V6.8207Z" fill="#986E49"/>
<path d="M7.33996 10.0594C7.42996 10.1494 7.48996 10.2694 7.52996 10.3894V7.60938C7.52996 7.60938 7.52996 7.66937 7.50996 7.69937C7.46996 7.79937 7.39996 7.88937 7.32996 7.95937C7.25996 8.03937 7.16996 8.09938 7.07996 8.13938C6.97996 8.17938 6.87996 8.19937 6.77996 8.19937H2.70996V9.81937H6.76996C6.97996 9.81937 7.18996 9.90938 7.33996 10.0594Z" fill="#986E49"/>
<path d="M7.52996 13.4594V10.8594C7.52996 10.8594 7.52996 10.9194 7.50996 10.9494C7.46996 11.0494 7.39996 11.1394 7.32996 11.2094C7.25996 11.2894 7.16996 11.3494 7.07996 11.3894C6.97996 11.4294 6.87996 11.4494 6.77996 11.4494H2.70996V13.0694H6.76996C6.97996 13.0694 7.18996 13.1594 7.33996 13.3094C7.48996 13.4594 7.57996 13.6694 7.57996 13.8794C7.57996 13.9894 7.55996 14.0894 7.50996 14.1894C7.46996 14.2894 7.39996 14.3794 7.32996 14.4494C7.25996 14.5294 7.16996 14.5894 7.07996 14.6294C6.97996 14.6694 6.87996 14.6894 6.77996 14.6894H2.70996V16.3094H6.76996C7.23996 16.3094 7.69996 16.1694 8.08996 15.9094C8.47996 15.6494 8.78996 15.2894 8.97996 14.8594C9.10996 14.5594 9.15996 14.2294 9.15996 13.8994L7.52996 13.4494V13.4594Z" fill="#986E49"/>
<path d="M10.3999 11.7695C10.5499 12.2895 10.7899 12.7095 11.1099 13.0295C11.4299 13.3495 11.8499 13.5695 12.3599 13.6895V13.9695C12.3599 14.1195 12.4199 14.2595 12.5299 14.3695C12.6399 14.4795 12.7799 14.5395 12.9299 14.5395C13.0799 14.5395 13.2199 14.4795 13.3299 14.3695C13.4399 14.2595 13.4999 14.1195 13.4999 13.9695V13.7295C14.0399 13.6295 14.5099 13.4195 14.8999 13.0895C15.2899 12.7595 15.4899 12.2795 15.4899 11.6395C15.4899 11.1795 15.3599 10.7595 15.0999 10.3795C14.8399 9.99945 14.3199 9.66945 13.5299 9.37945C12.8799 9.15945 12.4299 8.96945 12.1799 8.80945C11.9299 8.64945 11.7999 8.41945 11.7999 8.13945C11.7999 7.85945 11.8999 7.62945 12.0999 7.46945C12.2999 7.30945 12.5899 7.22945 12.9699 7.22945C13.3199 7.22945 13.5899 7.30945 13.7899 7.47945C13.9899 7.64945 14.1299 7.85945 14.2099 8.10945L15.2499 7.68945C15.1299 7.30945 14.9099 6.97945 14.5899 6.68945C14.2699 6.40945 13.9099 6.24945 13.5199 6.21945V5.97945C13.5199 5.82945 13.4599 5.68945 13.3499 5.57945C13.2399 5.46945 13.0999 5.40945 12.9499 5.40945C12.7999 5.40945 12.6599 5.46945 12.5499 5.57945C12.4399 5.68945 12.3799 5.82945 12.3799 5.97945V6.21945C11.8399 6.33945 11.4099 6.57945 11.1099 6.93945C10.8099 7.29945 10.6499 7.69945 10.6499 8.14945C10.6499 8.65945 10.7999 9.06945 11.0999 9.38945C11.3999 9.70945 11.8699 9.97945 12.5099 10.2095C13.1999 10.4595 13.6699 10.6795 13.9399 10.8795C14.2099 11.0795 14.3399 11.3295 14.3399 11.6495C14.3399 12.0095 14.2099 12.2695 13.9599 12.4395C13.7099 12.6095 13.3999 12.6895 13.0399 12.6895C12.6799 12.6895 12.3599 12.5795 12.0899 12.3595C11.8099 12.1395 11.6099 11.7995 11.4799 11.3595L10.3999 11.7795V11.7695ZM12.9499 16.4995C12.0499 16.4995 11.1999 16.3295 10.3999 15.9895C9.59992 15.6495 8.90992 15.1795 8.32992 14.5895C7.73992 13.9995 7.27992 13.3095 6.92992 12.5195C6.58992 11.7295 6.41992 10.8795 6.41992 9.96945C6.41992 9.05945 6.58992 8.21945 6.92992 7.41945C7.26992 6.62945 7.73992 5.92945 8.32992 5.34945C8.91992 4.75945 9.60992 4.29945 10.3999 3.94945C11.1899 3.60945 12.0399 3.43945 12.9499 3.43945C13.8599 3.43945 14.6999 3.60945 15.4999 3.94945C16.2899 4.28945 16.9899 4.75945 17.5699 5.34945C18.1599 5.93945 18.6199 6.62945 18.9699 7.41945C19.3199 8.20945 19.4799 9.05945 19.4799 9.96945C19.4799 10.8795 19.3099 11.7195 18.9699 12.5195C18.6299 13.3095 18.1599 14.0095 17.5699 14.5895C16.9799 15.1795 16.2899 15.6395 15.4999 15.9895C14.7099 16.3295 13.8599 16.4995 12.9499 16.4995ZM12.9499 15.1895C14.4099 15.1895 15.6399 14.6795 16.6499 13.6695C17.6599 12.6595 18.1699 11.4195 18.1699 9.96945C18.1699 8.51945 17.6599 7.27945 16.6499 6.26945C15.6399 5.25945 14.3999 4.74945 12.9499 4.74945C11.4999 4.74945 10.2599 5.25945 9.24992 6.26945C8.23992 7.27945 7.72992 8.51945 7.72992 9.96945C7.72992 11.4195 8.23992 12.6595 9.24992 13.6695C10.2599 14.6795 11.4999 15.1895 12.9499 15.1895Z" fill="#986E49"/>
</svg>
