<svg width="20" height="20" viewBox="0 0 20 20" fill="none" xmlns="http://www.w3.org/2000/svg">
<path d="M1.15979 12.25C0.759785 12.69 0.529785 13.27 0.529785 13.87C0.529785 14.51 0.789785 15.13 1.23979 15.59C1.69979 16.05 2.30979 16.3 2.95979 16.3H7.01978V14.68H2.95979C2.74979 14.68 2.53979 14.59 2.38979 14.44C2.23979 14.29 2.14979 14.08 2.14979 13.87C2.14979 13.76 2.16979 13.66 2.21979 13.56C2.25979 13.46 2.32979 13.37 2.39979 13.3C2.46979 13.22 2.55979 13.16 2.64979 13.12C2.74979 13.08 2.84979 13.06 2.94979 13.06H7.00979V11.44H2.95979C2.74979 11.44 2.53979 11.35 2.38979 11.2C2.23979 11.05 2.14979 10.84 2.14979 10.63C2.14979 10.52 2.16979 10.42 2.21979 10.32C2.25979 10.22 2.32979 10.13 2.39979 10.06C2.46979 9.97996 2.55979 9.91996 2.64979 9.87996C2.74979 9.83996 2.84979 9.81996 2.94979 9.81996H7.00979V8.19996H2.95979C2.74979 8.19996 2.53979 8.10996 2.38979 7.95996C2.23979 7.80996 2.14979 7.59996 2.14979 7.38996C2.14979 7.27996 2.16979 7.17996 2.21979 7.07996C2.25979 6.97996 2.32979 6.88996 2.39979 6.81996C2.46979 6.73996 2.55979 6.67996 2.64979 6.63996C2.74979 6.59996 2.84979 6.57996 2.94979 6.57996H7.00979V4.95996H2.95979C2.48979 4.95996 2.02979 5.09996 1.63979 5.35996C1.24979 5.61996 0.939785 5.97996 0.749785 6.40996C0.559785 6.83996 0.499785 7.30996 0.569785 7.76996C0.639785 8.22996 0.849785 8.65996 1.15979 9.00996C0.759785 9.45996 0.539785 10.03 0.539785 10.63C0.539785 11.23 0.759785 11.81 1.15979 12.25Z" fill="white"/>
<path d="M7.33996 6.81997C7.42996 6.90997 7.48996 7.02997 7.52996 7.14997V6.39997H8.97996C8.85996 6.12997 8.69996 5.88997 8.48996 5.67997C8.02996 5.21997 7.41996 4.96997 6.76996 4.96997H2.70996V6.58997H6.76996C6.97996 6.58997 7.18996 6.67997 7.33996 6.82997V6.81997Z" fill="white"/>
<path d="M7.33996 10.0601C7.42996 10.1501 7.48996 10.2701 7.52996 10.3901V7.61011C7.52996 7.61011 7.52996 7.67011 7.50996 7.70011C7.46996 7.80011 7.39996 7.89011 7.32996 7.96011C7.25996 8.04011 7.16996 8.10011 7.07996 8.14011C6.97996 8.18011 6.87996 8.20011 6.77996 8.20011H2.70996V9.82011H6.76996C6.97996 9.82011 7.18996 9.91011 7.33996 10.0601Z" fill="white"/>
<path d="M7.52996 13.4601V10.8601C7.52996 10.8601 7.52996 10.9201 7.50996 10.9501C7.46996 11.0501 7.39996 11.1401 7.32996 11.2101C7.25996 11.2901 7.16996 11.3501 7.07996 11.3901C6.97996 11.4301 6.87996 11.4501 6.77996 11.4501H2.70996V13.0701H6.76996C6.97996 13.0701 7.18996 13.1601 7.33996 13.3101C7.48996 13.4601 7.57996 13.6701 7.57996 13.8801C7.57996 13.9901 7.55996 14.0901 7.50996 14.1901C7.46996 14.2901 7.39996 14.3801 7.32996 14.4501C7.25996 14.5301 7.16996 14.5901 7.07996 14.6301C6.97996 14.6701 6.87996 14.6901 6.77996 14.6901H2.70996V16.3101H6.76996C7.23996 16.3101 7.69996 16.1701 8.08996 15.9101C8.47996 15.6501 8.78996 15.2901 8.97996 14.8601C9.10996 14.5601 9.15996 14.2301 9.15996 13.9001L7.52996 13.4501V13.4601Z" fill="white"/>
<path d="M10.3999 11.7699C10.5499 12.2899 10.7899 12.7099 11.1099 13.0299C11.4299 13.3499 11.8499 13.5699 12.3599 13.6899V13.9699C12.3599 14.1199 12.4199 14.2599 12.5299 14.3699C12.6399 14.4799 12.7799 14.5399 12.9299 14.5399C13.0799 14.5399 13.2199 14.4799 13.3299 14.3699C13.4399 14.2599 13.4999 14.1199 13.4999 13.9699V13.7299C14.0399 13.6299 14.5099 13.4199 14.8999 13.0899C15.2899 12.7599 15.4899 12.2799 15.4899 11.6399C15.4899 11.1799 15.3599 10.7599 15.0999 10.3799C14.8399 9.99994 14.3199 9.66994 13.5299 9.37994C12.8799 9.15994 12.4299 8.96994 12.1799 8.80994C11.9299 8.64994 11.7999 8.41994 11.7999 8.13994C11.7999 7.85994 11.8999 7.62994 12.0999 7.46994C12.2999 7.30994 12.5899 7.22994 12.9699 7.22994C13.3199 7.22994 13.5899 7.30994 13.7899 7.47994C13.9899 7.64994 14.1299 7.85994 14.2099 8.10994L15.2499 7.68994C15.1299 7.30994 14.9099 6.97994 14.5899 6.68994C14.2699 6.40994 13.9099 6.24994 13.5199 6.21994V5.97994C13.5199 5.82994 13.4599 5.68994 13.3499 5.57994C13.2399 5.46994 13.0999 5.40994 12.9499 5.40994C12.7999 5.40994 12.6599 5.46994 12.5499 5.57994C12.4399 5.68994 12.3799 5.82994 12.3799 5.97994V6.21994C11.8399 6.33994 11.4099 6.57994 11.1099 6.93994C10.8099 7.29994 10.6499 7.69994 10.6499 8.14994C10.6499 8.65994 10.7999 9.06994 11.0999 9.38994C11.3999 9.70994 11.8699 9.97994 12.5099 10.2099C13.1999 10.4599 13.6699 10.6799 13.9399 10.8799C14.2099 11.0799 14.3399 11.3299 14.3399 11.6499C14.3399 12.0099 14.2099 12.2699 13.9599 12.4399C13.7099 12.6099 13.3999 12.6899 13.0399 12.6899C12.6799 12.6899 12.3599 12.5799 12.0899 12.3599C11.8099 12.1399 11.6099 11.7999 11.4799 11.3599L10.3999 11.7799V11.7699ZM12.9499 16.4999C12.0499 16.4999 11.1999 16.3299 10.3999 15.9899C9.59992 15.6499 8.90992 15.1799 8.32992 14.5899C7.73992 13.9999 7.27992 13.3099 6.92992 12.5199C6.58992 11.7299 6.41992 10.8799 6.41992 9.96994C6.41992 9.05994 6.58992 8.21994 6.92992 7.41994C7.26992 6.62994 7.73992 5.92994 8.32992 5.34994C8.91992 4.75994 9.60992 4.29994 10.3999 3.94994C11.1899 3.60994 12.0399 3.43994 12.9499 3.43994C13.8599 3.43994 14.6999 3.60994 15.4999 3.94994C16.2899 4.28994 16.9899 4.75994 17.5699 5.34994C18.1599 5.93994 18.6199 6.62994 18.9699 7.41994C19.3199 8.20994 19.4799 9.05994 19.4799 9.96994C19.4799 10.8799 19.3099 11.7199 18.9699 12.5199C18.6299 13.3099 18.1599 14.0099 17.5699 14.5899C16.9799 15.1799 16.2899 15.6399 15.4999 15.9899C14.7099 16.3299 13.8599 16.4999 12.9499 16.4999ZM12.9499 15.1899C14.4099 15.1899 15.6399 14.6799 16.6499 13.6699C17.6599 12.6599 18.1699 11.4199 18.1699 9.96994C18.1699 8.51994 17.6599 7.27994 16.6499 6.26994C15.6399 5.25994 14.3999 4.74994 12.9499 4.74994C11.4999 4.74994 10.2599 5.25994 9.24992 6.26994C8.23992 7.27994 7.72992 8.51994 7.72992 9.96994C7.72992 11.4199 8.23992 12.6599 9.24992 13.6699C10.2599 14.6799 11.4999 15.1899 12.9499 15.1899Z" fill="white"/>
</svg>
