<svg width="20" height="20" viewBox="0 0 20 20" fill="none" xmlns="http://www.w3.org/2000/svg">
<path d="M1.1593 12.2509C0.759297 12.6909 0.529297 13.2709 0.529297 13.8709C0.529297 14.5109 0.789297 15.1309 1.2393 15.5909C1.6993 16.0509 2.3093 16.3009 2.9593 16.3009H7.0193V14.6809H2.9593C2.7493 14.6809 2.5393 14.5909 2.3893 14.4409C2.2393 14.2909 2.1493 14.0809 2.1493 13.8709C2.1493 13.7609 2.1693 13.6609 2.2193 13.5609C2.2593 13.4609 2.3293 13.3709 2.3993 13.3009C2.4693 13.2209 2.5593 13.1609 2.6493 13.1209C2.7493 13.0809 2.8493 13.0609 2.9493 13.0609H7.0093V11.4409H2.9593C2.7493 11.4409 2.5393 11.3509 2.3893 11.2009C2.2393 11.0509 2.1493 10.8409 2.1493 10.6309C2.1493 10.5209 2.1693 10.4209 2.2193 10.3209C2.2593 10.2209 2.3293 10.1309 2.3993 10.0609C2.4693 9.98094 2.5593 9.92094 2.6493 9.88094C2.7493 9.84094 2.8493 9.82094 2.9493 9.82094H7.0093V8.20094H2.9593C2.7493 8.20094 2.5393 8.11094 2.3893 7.96094C2.2393 7.81094 2.1493 7.60094 2.1493 7.39094C2.1493 7.28094 2.1693 7.18094 2.2193 7.08094C2.2593 6.98094 2.3293 6.89094 2.3993 6.82094C2.4693 6.74094 2.5593 6.68094 2.6493 6.64094C2.7493 6.60094 2.8493 6.58094 2.9493 6.58094H7.0093V4.96094H2.9593C2.4893 4.96094 2.0293 5.10094 1.6393 5.36094C1.2493 5.62094 0.939297 5.98094 0.749297 6.41094C0.559297 6.84094 0.499297 7.31094 0.569297 7.77094C0.639297 8.23094 0.849297 8.66094 1.1593 9.01094C0.759297 9.46094 0.539297 10.0309 0.539297 10.6309C0.539297 11.2309 0.759297 11.8109 1.1593 12.2509Z" fill="white"/>
<path d="M7.34094 6.81875C7.43094 6.90875 7.49094 7.02875 7.53094 7.14875V6.39875H8.98094C8.86094 6.12875 8.70094 5.88875 8.49094 5.67875C8.03094 5.21875 7.42094 4.96875 6.77094 4.96875H2.71094V6.58875H6.77094C6.98094 6.58875 7.19094 6.67875 7.34094 6.82875V6.81875Z" fill="white"/>
<path d="M7.34094 10.0594C7.43094 10.1494 7.49094 10.2694 7.53094 10.3894V7.60938C7.53094 7.60938 7.53094 7.66937 7.51094 7.69937C7.47094 7.79937 7.40094 7.88937 7.33094 7.95937C7.26094 8.03937 7.17094 8.09938 7.08094 8.13938C6.98094 8.17938 6.88094 8.19937 6.78094 8.19937H2.71094V9.81937H6.77094C6.98094 9.81937 7.19094 9.90938 7.34094 10.0594Z" fill="white"/>
<path d="M7.53094 13.4594V10.8594C7.53094 10.8594 7.53094 10.9194 7.51094 10.9494C7.47094 11.0494 7.40094 11.1394 7.33094 11.2094C7.26094 11.2894 7.17094 11.3494 7.08094 11.3894C6.98094 11.4294 6.88094 11.4494 6.78094 11.4494H2.71094V13.0694H6.77094C6.98094 13.0694 7.19094 13.1594 7.34094 13.3094C7.49094 13.4594 7.58094 13.6694 7.58094 13.8794C7.58094 13.9894 7.56094 14.0894 7.51094 14.1894C7.47094 14.2894 7.40094 14.3794 7.33094 14.4494C7.26094 14.5294 7.17094 14.5894 7.08094 14.6294C6.98094 14.6694 6.88094 14.6894 6.78094 14.6894H2.71094V16.3094H6.77094C7.24094 16.3094 7.70094 16.1694 8.09094 15.9094C8.48094 15.6494 8.79094 15.2894 8.98094 14.8594C9.11094 14.5594 9.16094 14.2294 9.16094 13.8994L7.53094 13.4494V13.4594Z" fill="white"/>
<path d="M10.3999 11.7714C10.5499 12.2914 10.7899 12.7114 11.1099 13.0314C11.4299 13.3514 11.8499 13.5714 12.3599 13.6914V13.9714C12.3599 14.1214 12.4199 14.2614 12.5299 14.3714C12.6399 14.4814 12.7799 14.5414 12.9299 14.5414C13.0799 14.5414 13.2199 14.4814 13.3299 14.3714C13.4399 14.2614 13.4999 14.1214 13.4999 13.9714V13.7314C14.0399 13.6314 14.5099 13.4214 14.8999 13.0914C15.2899 12.7614 15.4899 12.2814 15.4899 11.6414C15.4899 11.1814 15.3599 10.7614 15.0999 10.3814C14.8399 10.0014 14.3199 9.67141 13.5299 9.38141C12.8799 9.16141 12.4299 8.97141 12.1799 8.81141C11.9299 8.65141 11.7999 8.42141 11.7999 8.14141C11.7999 7.86141 11.8999 7.63141 12.0999 7.47141C12.2999 7.31141 12.5899 7.23141 12.9699 7.23141C13.3199 7.23141 13.5899 7.31141 13.7899 7.48141C13.9899 7.65141 14.1299 7.86141 14.2099 8.11141L15.2499 7.69141C15.1299 7.31141 14.9099 6.98141 14.5899 6.69141C14.2699 6.41141 13.9099 6.25141 13.5199 6.22141V5.98141C13.5199 5.83141 13.4599 5.69141 13.3499 5.58141C13.2399 5.47141 13.0999 5.41141 12.9499 5.41141C12.7999 5.41141 12.6599 5.47141 12.5499 5.58141C12.4399 5.69141 12.3799 5.83141 12.3799 5.98141V6.22141C11.8399 6.34141 11.4099 6.58141 11.1099 6.94141C10.8099 7.30141 10.6499 7.70141 10.6499 8.15141C10.6499 8.66141 10.7999 9.07141 11.0999 9.39141C11.3999 9.71141 11.8699 9.98141 12.5099 10.2114C13.1999 10.4614 13.6699 10.6814 13.9399 10.8814C14.2099 11.0814 14.3399 11.3314 14.3399 11.6514C14.3399 12.0114 14.2099 12.2714 13.9599 12.4414C13.7099 12.6114 13.3999 12.6914 13.0399 12.6914C12.6799 12.6914 12.3599 12.5814 12.0899 12.3614C11.8099 12.1414 11.6099 11.8014 11.4799 11.3614L10.3999 11.7814V11.7714ZM12.9499 16.5014C12.0499 16.5014 11.1999 16.3314 10.3999 15.9914C9.59992 15.6514 8.90992 15.1814 8.32992 14.5914C7.73992 14.0014 7.27992 13.3114 6.92992 12.5214C6.58992 11.7314 6.41992 10.8814 6.41992 9.97141C6.41992 9.06141 6.58992 8.22141 6.92992 7.42141C7.26992 6.63141 7.73992 5.93141 8.32992 5.35141C8.91992 4.76141 9.60992 4.30141 10.3999 3.95141C11.1899 3.61141 12.0399 3.44141 12.9499 3.44141C13.8599 3.44141 14.6999 3.61141 15.4999 3.95141C16.2899 4.29141 16.9899 4.76141 17.5699 5.35141C18.1599 5.94141 18.6199 6.63141 18.9699 7.42141C19.3199 8.21141 19.4799 9.06141 19.4799 9.97141C19.4799 10.8814 19.3099 11.7214 18.9699 12.5214C18.6299 13.3114 18.1599 14.0114 17.5699 14.5914C16.9799 15.1814 16.2899 15.6414 15.4999 15.9914C14.7099 16.3314 13.8599 16.5014 12.9499 16.5014ZM12.9499 15.1914C14.4099 15.1914 15.6399 14.6814 16.6499 13.6714C17.6599 12.6614 18.1699 11.4214 18.1699 9.97141C18.1699 8.52141 17.6599 7.28141 16.6499 6.27141C15.6399 5.26141 14.3999 4.75141 12.9499 4.75141C11.4999 4.75141 10.2599 5.26141 9.24992 6.27141C8.23992 7.28141 7.72992 8.52141 7.72992 9.97141C7.72992 11.4214 8.23992 12.6614 9.24992 13.6714C10.2599 14.6814 11.4999 15.1914 12.9499 15.1914Z" fill="white"/>
</svg>
