<svg width="157" height="105" viewBox="0 0 157 105" fill="none" xmlns="http://www.w3.org/2000/svg">
<rect x="7" y="7" width="140" height="91" rx="10" fill="white"/>
<rect x="16.2332" y="20.8203" width="55.3731" height="6.58472" fill="#D9D9D9"/>
<rect x="16.2332" y="33.4292" width="55.3731" height="6.58472" fill="#D9D9D9"/>
<rect x="16.2332" y="71.6445" width="115.492" height="6.58472" fill="#D9D9D9"/>
<rect x="16.2332" y="82.0469" width="115.492" height="6.58472" fill="#D9D9D9"/>
<g clip-path="url(#clip0_16_1281)">
<path fill-rule="evenodd" clip-rule="evenodd" d="M126.598 51.1989C128.292 52.8016 129.536 54.6904 130.492 56.779C130.952 57.7779 131.143 58.8494 131.33 59.9255C131.408 60.3795 131.471 60.8336 131.54 61.2922C131.549 61.3466 131.558 61.4011 131.562 61.4602C131.608 62.0277 131.522 62.1321 130.957 62.1548C130.397 62.1775 129.836 62.1957 129.276 62.2048C124.667 62.2774 120.058 62.3592 115.448 62.4091C111.777 62.45 108.111 62.3319 104.44 62.2683C102.436 62.2366 100.436 62.1957 98.4323 62.1594C98.2775 62.1594 98.1226 62.1548 97.9723 62.1321C97.7036 62.0913 97.6444 62.0232 97.6262 61.7507C97.6079 61.442 97.6535 61.1378 97.7036 60.8336C97.8767 59.8165 98.0133 58.7904 98.3185 57.8006C98.7466 56.4112 99.4526 55.1626 100.268 53.9685C100.946 52.9742 101.657 52.0025 102.591 51.2352C102.545 51.0627 102.39 51.0763 102.29 51.0127C101.493 50.5314 100.924 49.9049 100.855 48.9287C100.828 48.5064 100.915 48.0978 101.024 47.6892C101.142 47.2578 101.302 46.8401 101.461 46.4224C101.821 45.4644 101.771 44.5336 101.252 43.6437C101.092 43.3667 100.919 43.0943 100.764 42.8128C100.063 41.5369 100.122 40.2747 100.869 39.0397C101.124 38.622 101.447 38.2497 101.771 37.8819C102.454 37.1191 102.664 36.1974 102.714 35.2167C102.718 35.1168 102.714 35.0215 102.659 34.9352C102.204 34.1406 102.258 33.3007 102.436 32.4516C102.472 32.27 102.486 32.1111 102.427 31.9295C102.313 31.5799 102.336 31.2121 102.308 30.8489C102.167 28.8829 102.695 27.0576 103.543 25.3141C104.841 22.6489 106.822 20.6058 109.345 19.0756C110.037 18.6534 110.794 18.3492 111.577 18.1312C112.415 17.8997 113.248 17.6681 114.123 17.6273C114.943 17.5864 115.744 17.6727 116.541 17.8361C119.156 18.3855 121.269 19.7749 123.1 21.6682C124.749 23.3754 125.86 25.3777 126.548 27.6297C126.844 28.6014 126.912 29.6048 126.894 30.6082C126.885 31.1077 126.894 31.6162 126.712 32.0975C126.671 32.211 126.726 32.3154 126.753 32.4244C126.889 33.0146 126.935 33.6094 126.812 34.2088C126.771 34.404 126.726 34.5992 126.621 34.7581C126.475 34.9852 126.457 35.2258 126.484 35.4801C126.589 36.4154 126.844 37.2781 127.509 37.9909C127.805 38.3042 128.078 38.6493 128.306 39.017C129.076 40.2565 129.135 41.5324 128.415 42.8219C128.233 43.1533 128.028 43.4711 127.851 43.8026C127.422 44.6153 127.377 45.4553 127.691 46.3134C127.891 46.8628 128.11 47.4077 128.238 47.9843C128.547 49.3736 128.051 50.4316 126.771 51.0718C126.712 51.1035 126.634 51.1081 126.598 51.1989Z" fill="#F1F1F1"/>
<path fill-rule="evenodd" clip-rule="evenodd" d="M104.877 32.7919C104.781 32.5467 104.699 32.3106 104.59 32.0836C104.476 31.8429 104.321 31.6386 104.107 31.4661C103.784 31.2073 103.474 31.23 103.137 31.4161C103.032 31.4752 102.955 31.5887 102.796 31.6023C102.659 30.7124 102.627 29.827 102.791 28.9462C103.251 26.4898 104.308 24.3195 105.961 22.4398C106.986 21.2729 108.147 20.2695 109.495 19.5067C111.021 18.644 112.67 18.1128 114.414 17.9267C115.043 17.8586 115.667 18.0356 116.277 18.1809C119.766 19.0027 122.403 21.0368 124.384 23.9518C125.327 25.3366 125.96 26.8758 126.325 28.5148C126.539 29.4774 126.516 30.4536 126.425 31.4343C126.42 31.4888 126.398 31.5387 126.384 31.5887C126.256 31.6205 126.206 31.516 126.129 31.4661C125.614 31.1528 125.323 31.18 124.844 31.6886C124.639 31.902 124.53 32.1789 124.434 32.4604C124.403 32.5649 124.366 32.6693 124.325 32.7873C124.011 32.6375 123.806 32.3787 123.551 32.1926C122.818 31.6568 122.071 31.1346 121.274 30.6897C119.72 29.827 118.468 28.6147 117.297 27.3071C116.746 26.6941 116.204 26.0721 115.722 25.4001C115.412 24.9643 115.12 24.5284 114.924 24.0289C114.874 23.8973 114.811 23.7747 114.742 23.6521C114.633 23.4705 114.546 23.4659 114.442 23.6385C114.396 23.7111 114.36 23.7838 114.332 23.8655C113.995 24.7372 113.431 25.4728 112.848 26.1856C112.096 27.1073 111.299 27.9882 110.434 28.8054C109.668 29.5273 108.835 30.163 107.915 30.6806C106.927 31.2391 105.988 31.8702 105.123 32.6103C105.05 32.6738 104.964 32.7192 104.868 32.7873L104.877 32.7919Z" fill="#8C5F42"/>
<path fill-rule="evenodd" clip-rule="evenodd" d="M124.708 34.4672C124.69 34.9621 124.557 35.3389 124.416 35.7203C124.029 36.7691 123.683 37.8316 123.196 38.8395C122.512 40.2561 121.693 41.5774 120.59 42.7216C119.511 43.8431 118.208 44.5559 116.714 44.96C115.926 45.1734 115.139 45.3459 114.314 45.3051C113.704 45.2778 113.13 45.1189 112.542 44.9782C110.534 44.4923 108.972 43.3618 107.733 41.7454C106.558 40.2062 105.733 38.4899 105.105 36.6692C105.005 36.3787 104.909 36.0881 104.795 35.802C104.64 35.3979 104.49 34.9938 104.485 34.508C104.262 34.6034 104.125 34.7623 103.966 34.8849C103.679 35.1073 103.547 35.1119 103.26 34.894C103.101 34.7714 102.991 34.6124 102.919 34.4263C102.645 33.7044 102.677 32.9779 102.896 32.2514C102.919 32.1743 102.955 32.088 103.005 32.029C103.465 31.4841 103.825 31.4523 104.176 32.0562C104.335 32.3377 104.412 32.651 104.508 32.9552C104.617 33.2957 104.713 33.323 105.009 33.1096C105.328 32.8826 105.624 32.6238 105.975 32.4376C106.116 32.5239 106.234 32.6555 106.412 32.6737C106.667 32.7009 106.713 32.8735 106.708 33.0914C106.694 33.5954 106.753 34.0948 106.767 34.5988C106.799 35.7975 107.459 36.2878 108.571 36.3923C109.45 36.474 110.333 36.365 111.212 36.2879C111.969 36.2197 112.501 35.7975 112.848 35.1255C113.048 34.7396 113.198 34.3355 113.367 33.9359C113.535 33.5364 113.768 33.1686 113.982 32.7963C114.218 32.3831 114.934 32.3786 115.193 32.7872C115.535 33.323 115.794 33.8905 116.036 34.4717C116.131 34.7033 116.241 34.9303 116.35 35.1573C116.705 35.8747 117.297 36.2561 118.081 36.306C118.878 36.356 119.675 36.4286 120.472 36.4059C120.914 36.3923 121.328 36.2788 121.706 36.0427C122.062 35.8247 122.276 35.516 122.339 35.1028C122.435 34.508 122.458 33.9087 122.462 33.3094C122.462 33.1686 122.476 33.0324 122.485 32.8916C122.494 32.8008 122.535 32.7373 122.631 32.71C122.804 32.6601 122.982 32.6147 123.118 32.483C123.214 32.3922 123.3 32.4875 123.373 32.542C123.647 32.7373 123.915 32.937 124.189 33.1323C124.444 33.3139 124.548 33.2821 124.649 32.9961C124.721 32.7872 124.781 32.5693 124.853 32.3604C124.89 32.256 124.935 32.1516 124.99 32.0562C125.332 31.4796 125.824 31.4796 126.183 32.0607C126.548 32.651 126.507 34.1312 126.106 34.6851C126.006 34.8258 125.878 34.9257 125.723 35.0029C125.569 35.0801 125.432 35.0756 125.295 34.9621C125.118 34.8122 124.931 34.6669 124.69 34.4672H124.708Z" fill="#FFCFA0"/>
<path fill-rule="evenodd" clip-rule="evenodd" d="M103.014 35.3479C103.461 35.5523 103.861 35.6567 104.23 35.248C104.417 35.7066 104.558 36.1516 104.686 36.6011C105.237 38.5534 106.089 40.3605 107.323 41.9814C108.207 43.1392 109.25 44.12 110.579 44.7602C110.775 44.8555 110.839 44.9645 110.83 45.1733C110.812 45.7046 110.807 46.2358 110.816 46.7625C110.821 47.0031 110.762 47.1257 110.52 47.221C109.054 47.8113 107.578 48.3698 106.143 49.0372C105.05 49.5457 103.994 50.1133 103.042 50.8579C102.896 50.9714 102.805 51.0123 102.664 50.8579C102.445 50.6218 102.208 50.4039 101.971 50.1859C101.366 49.6275 101.22 48.9419 101.37 48.1609C101.47 47.6524 101.662 47.1711 101.867 46.6944C102.044 46.2812 102.158 45.8544 102.185 45.4004C102.226 44.7556 102.09 44.1517 101.785 43.5842C101.593 43.2255 101.37 42.885 101.179 42.5308C100.6 41.4457 100.614 40.3651 101.243 39.3072C101.461 38.9348 101.725 38.5852 102.017 38.2629C102.691 37.5092 102.982 36.6147 103.019 35.6204C103.019 35.5523 103.019 35.4796 103.019 35.3434L103.014 35.3479Z" fill="#8C5F42"/>
<path fill-rule="evenodd" clip-rule="evenodd" d="M124.977 35.2891C125.418 35.6023 125.45 35.6023 126.129 35.389C126.22 35.5842 126.179 35.7976 126.202 35.9974C126.288 36.8237 126.575 37.5593 127.122 38.1995C127.404 38.5264 127.673 38.8714 127.901 39.2392C128.584 40.3244 128.607 41.4458 127.992 42.5718C127.837 42.8533 127.664 43.1258 127.504 43.4027C126.903 44.4561 126.839 45.5413 127.309 46.6582C127.527 47.1713 127.732 47.6889 127.837 48.2428C127.973 48.9874 127.805 49.6231 127.258 50.1543C127.008 50.3949 126.748 50.6356 126.507 50.8853C126.393 51.0033 126.311 50.9852 126.193 50.8898C124.749 49.7502 123.082 49.0283 121.406 48.32C120.49 47.934 119.566 47.5754 118.641 47.2121C118.491 47.1531 118.382 47.1032 118.382 46.8988C118.391 46.2859 118.381 45.6729 118.363 45.0554C118.363 44.9147 118.432 44.8602 118.541 44.8057C121.01 43.5844 122.462 41.4685 123.606 39.0803C124.161 37.9179 124.476 36.6693 124.872 35.448C124.89 35.398 124.89 35.339 124.981 35.2891H124.977Z" fill="#8C5F42"/>
<path fill-rule="evenodd" clip-rule="evenodd" d="M121.31 31.266C116.801 31.1707 112.297 31.1525 107.747 31.3023C109.286 30.5214 110.58 29.4498 111.718 28.1922C112.839 26.9526 114 25.7404 114.578 24.1104C114.61 24.1467 114.656 24.1739 114.665 24.2057C114.861 24.9231 115.271 25.5224 115.708 26.1036C116.746 27.4793 117.89 28.7597 119.224 29.8585C119.871 30.3942 120.581 30.8347 121.306 31.2615L121.31 31.266Z" fill="#FFCFA0"/>
<path fill-rule="evenodd" clip-rule="evenodd" d="M111.244 45.0057C113.494 46.0091 115.708 46.0045 117.967 44.9966C117.967 45.3598 117.967 45.6413 117.967 45.9274C117.967 46.3042 117.949 46.6811 117.949 47.0579C117.949 47.2259 117.912 47.3576 117.766 47.4484C117.188 47.8116 116.678 48.2702 116.086 48.6198C115.07 49.2282 114.105 49.2237 113.093 48.6153C112.501 48.2611 111.987 47.8116 111.413 47.4393C111.317 47.3757 111.24 47.3031 111.24 47.1714C111.24 46.4767 111.24 45.7821 111.24 45.0011L111.244 45.0057Z" fill="#FFCFA0"/>
<path fill-rule="evenodd" clip-rule="evenodd" d="M110.766 47.5254C111.827 48.3835 112.811 49.2825 114.168 49.5549C114.155 49.7229 114.041 49.7683 113.959 49.8319C113.435 50.2542 112.934 50.6991 112.342 51.0306C111.718 51.3756 111.067 51.5119 110.361 51.3393C109.641 51.1622 109.136 50.7309 108.849 50.0635C108.53 49.3188 108.962 48.3018 109.7 47.9885C110.06 47.8341 110.42 47.6752 110.766 47.5254Z" fill="#C4A580"/>
<path fill-rule="evenodd" clip-rule="evenodd" d="M114.934 49.5912C115.494 49.4368 115.981 49.2688 116.432 49.0009C117.106 48.6014 117.726 48.1246 118.299 47.5934C118.377 47.5207 118.422 47.5117 118.509 47.5525C118.919 47.7341 119.356 47.8704 119.73 48.1019C120.153 48.3607 120.349 48.8148 120.413 49.296C120.508 49.9907 120.194 50.5219 119.666 50.926C118.91 51.5027 118.072 51.5345 117.202 51.1985C116.956 51.1031 116.724 50.9669 116.505 50.8171C115.972 50.4538 115.485 50.0361 114.934 49.5866V49.5912Z" fill="#C4A580"/>
<path fill-rule="evenodd" clip-rule="evenodd" d="M125.514 34.0676C125.314 33.6544 125.355 33.2957 125.464 32.937C125.482 32.8689 125.532 32.8145 125.61 32.8145C125.673 32.8145 125.71 32.8599 125.714 32.9189C125.751 33.3003 125.751 33.6771 125.509 34.0676H125.514Z" fill="#F1F1F1"/>
<path fill-rule="evenodd" clip-rule="evenodd" d="M103.684 33.9814C103.442 33.6726 103.433 33.3185 103.447 32.9598C103.447 32.8917 103.492 32.8236 103.57 32.81C103.652 32.8009 103.697 32.8644 103.716 32.9325C103.834 33.2822 103.816 33.6272 103.684 33.9814Z" fill="#F1F1F1"/>
<path fill-rule="evenodd" clip-rule="evenodd" d="M110.52 31.9248C110.93 31.9656 111.436 31.8839 111.937 31.952C112.032 31.9656 112.132 31.9656 112.228 31.9792C112.852 32.061 113.075 32.3516 112.893 32.96C112.706 33.5865 112.483 34.204 112.173 34.7852C111.9 35.3073 111.445 35.548 110.88 35.5752C110.124 35.6116 109.368 35.6252 108.616 35.5843C107.892 35.548 107.546 35.2302 107.464 34.5128C107.4 33.9589 107.409 33.3958 107.455 32.8419C107.5 32.2834 107.778 32.0383 108.338 31.9656C109.035 31.8703 109.737 31.893 110.525 31.9293L110.52 31.9248Z" fill="#F1F1F1"/>
<path fill-rule="evenodd" clip-rule="evenodd" d="M119.028 32.2333C119.588 32.2333 120.144 32.2243 120.704 32.2333C121.073 32.2424 121.251 32.3741 121.333 32.7237C121.488 33.3821 121.478 34.054 121.346 34.7124C121.269 35.0847 121.082 35.23 120.7 35.2436C119.975 35.2709 119.247 35.2981 118.523 35.2845C117.953 35.2709 117.452 35.0983 117.211 34.499C117.02 34.0359 116.819 33.5773 116.664 33.1006C116.632 33.0098 116.596 32.9144 116.582 32.8191C116.532 32.5012 116.637 32.3605 116.947 32.2924C117.261 32.2197 117.584 32.2197 117.908 32.2197C118.286 32.2197 118.664 32.2197 119.037 32.2197V32.2288L119.028 32.2333Z" fill="#FFCFA0"/>
<path fill-rule="evenodd" clip-rule="evenodd" d="M110.174 32.2287C110.666 32.2287 111.153 32.2287 111.645 32.2287C111.814 32.2287 111.982 32.2514 112.146 32.2786C112.588 32.3513 112.693 32.4966 112.579 32.9324C112.497 33.2412 112.369 33.5363 112.255 33.836C112.192 34.004 112.11 34.1674 112.05 34.34C111.841 34.9892 111.349 35.2526 110.711 35.2844C110.393 35.3025 110.069 35.2844 109.746 35.2844C109.354 35.2798 108.962 35.2707 108.571 35.2526C108.088 35.2299 107.865 35.0528 107.806 34.5897C107.728 34.0221 107.719 33.4455 107.81 32.878C107.878 32.4739 108.038 32.2105 108.575 32.2241C109.108 32.2378 109.641 32.2241 110.174 32.2241V32.2287Z" fill="#FFCFA0"/>
<path d="M120.887 31.0571H108.935V32.678H120.887V31.0571Z" fill="#FFCFA0"/>
<path d="M113.549 31.3961L110.591 34.9731L112 36.1312L114.958 32.5542L113.549 31.3961Z" fill="#FFCFA0"/>
<path d="M118.41 35.7339L116.46 31.5254L114.802 32.2888L116.752 36.4974L118.41 35.7339Z" fill="#FFCFA0"/>
<path fill-rule="evenodd" clip-rule="evenodd" d="M105.679 35.7021L105.884 32.4693L109.646 30.1265L109.245 35.7021H105.679Z" fill="#FFCFA0"/>
<path fill-rule="evenodd" clip-rule="evenodd" d="M123.51 35.7021L123.305 32.4693L119.547 30.1265L119.944 35.7021H123.51Z" fill="#FFCFA0"/>
<path d="M113.522 34.9531H106.649V36.574H113.522V34.9531Z" fill="#FFCFA0"/>
<path d="M123.309 34.9531H116.437V36.574H123.309V34.9531Z" fill="#FFCFA0"/>
</g>
<path d="M13.0918 1.62891H3.0918C1.98723 1.62891 1.0918 2.52434 1.0918 3.62891V13.6289" stroke="#B3885C" stroke-width="2" stroke-linecap="round"/>
<path d="M143.092 1.62891H153.092C154.196 1.62891 155.092 2.52434 155.092 3.62891V13.6289" stroke="#B3885C" stroke-width="2" stroke-linecap="round"/>
<path d="M17.0918 103.629H3.0918C1.98723 103.629 1.0918 102.733 1.0918 101.629V87.6289" stroke="#B3885C" stroke-width="2" stroke-linecap="round"/>
<path d="M143.092 103.629H153.092C154.196 103.629 155.092 102.733 155.092 101.629V91.6289" stroke="#B3885C" stroke-width="2" stroke-linecap="round"/>
<rect opacity="0.7" x="47.5918" y="26.1289" width="59" height="59" rx="29.5" fill="#319877" stroke="#319877"/>
<path d="M93.0918 50.7059C93.0918 50.0531 92.8324 49.427 92.3708 48.9653C91.9093 48.5037 91.2831 48.2444 90.6303 48.2444H85.7072L82.0149 43.3213H72.1687L68.4764 48.2444H63.5533C62.9005 48.2444 62.2744 48.5037 61.8128 48.9653C61.3511 49.427 61.0918 50.0531 61.0918 50.7059V65.4751C61.0918 66.1279 61.3511 66.7542 61.8128 67.2157C62.2744 67.6772 62.9005 67.9367 63.5533 67.9367H90.6303C91.2831 67.9367 91.9093 67.6772 92.3708 67.2157C92.8324 66.7542 93.0918 66.1279 93.0918 65.4751V50.7059Z" stroke="white" stroke-width="2" stroke-linecap="round" stroke-linejoin="round"/>
<path d="M77.0917 62.3982C80.1505 62.3982 82.6301 59.9186 82.6301 56.8598C82.6301 53.8009 80.1505 51.3213 77.0917 51.3213C74.0329 51.3213 71.5532 53.8009 71.5532 56.8598C71.5532 59.9186 74.0329 62.3982 77.0917 62.3982Z" stroke="white" stroke-width="3" stroke-linecap="round" stroke-linejoin="round"/>
<defs>
<clipPath id="clip0_16_1281">
<rect width="33.95" height="44.8" fill="white" transform="translate(97.6216 17.6133)"/>
</clipPath>
</defs>
</svg>
